<?xml version="1.0" encoding="UTF-8"?>
<svg xmlns="http://www.w3.org/2000/svg" viewBox="0 0 1378 871" width="1378" height="871">
<path d="M0.25 0.25C459.42 0.25 918.58 0.25 1377.75 0.25C1377.75 290.42 1377.75 580.58 1377.75 870.75C918.58 870.75 459.42 870.75 0.25 870.75C0.25 580.58 0.25 290.42 0.25 0.25ZM63.87 350.46C59.14 361.83 54.08 385.78 53.99 398C53.88 398.63 53.77 399.26 53.66 399.88C53.42 402.26 53.18 404.63 52.94 407C52.85 407.64 52.75 408.28 52.66 408.92C52.46 412.28 52.26 415.64 52.06 419C51.93 422.37 51.8 425.74 51.67 429.11C51.73 431.74 51.78 434.37 51.84 437C51.92 440 52 443 52.08 446C52.27 449.04 52.47 452.07 52.66 455.11C52.75 455.74 52.85 456.37 52.94 457C52.87 473.68 57.66 493.26 62.33 509.28C72.17 543.04 85.2 572.12 105.92 600.63C111.41 608.19 117.19 615.97 123.84 622.55C124.91 623.74 125.99 624.92 127.06 626.11C136.63 639.05 154.9 652.9 167.87 662.6C204.75 690.17 248.1 708.55 293.44 716.27C306.77 718.55 320.45 720.7 334 720.9C335.67 720.94 337.33 720.98 339 721.02C344.33 721.02 349.67 721.01 355 721.01C356.67 720.98 358.33 720.94 360 720.91C374.15 721.06 388.64 718.7 402.53 716.19C462.73 705.33 514.14 676.72 558.03 634.52C567.03 625.86 575.9 617.04 584.26 607.75C586.82 604.9 589.81 602.25 591.98 599.13C593.03 598.07 594.07 597.01 595.12 595.94C596.91 594.02 598.7 592.09 600.49 590.17C606.65 585.12 611.66 578.46 617.34 572.83C626.12 564.15 636.83 554.92 642.11 543.55C644.87 537.6 648.71 526.83 643.15 521.35C637.3 515.59 628.24 523.17 623.35 526.9C611.95 535.57 601.36 545.6 591.08 555.58C586.79 559.74 581.53 563.35 577.82 567.99C568.25 574.51 559.59 582.84 550.34 589.89C532.65 603.35 513.59 616.03 493.96 626.47C482.5 632.57 471.33 639.07 458.43 641.73C443.28 644.86 427.51 643.95 412.39 641.27C395.18 638.22 372.55 631.85 362.34 616.21C353.08 602.04 363.05 591.51 377.5 589.97C398.27 587.76 418.93 591.92 439.5 593.89C444.38 594.36 449.59 594.95 454.5 594.83C458.29 594.74 461.96 593.7 465.65 594.5C460.66 601.88 454.75 608.7 448.98 615.48C446.19 618.76 442.76 621.37 445.45 625.5C452.17 625.28 459.41 618.01 464.29 613.82C477.99 602.04 499.67 580.41 504.86 563C504.99 562.65 505.11 562.29 505.24 561.94C505.76 560.63 506.28 559.31 506.8 558C508.3 551.62 509.8 545.24 511.3 538.86C511.5 537.24 511.69 535.62 511.88 534C511.93 532.67 511.99 531.33 512.04 530C513.35 522.38 513 514.64 511.99 507C511.95 506 511.92 505 511.88 504C511.64 502.27 511.4 500.55 511.16 498.82C511.1 497.88 511.04 496.94 510.98 496C510.71 493.79 510.43 491.58 510.16 489.38C510.13 489.25 510.11 489.13 510.09 489C509.76 487 509.43 484.99 509.1 482.99C508.84 480.96 508.59 478.93 508.33 476.9C506.59 467.6 504.85 458.3 503.11 449C502.84 447.37 502.57 445.73 502.3 444.1C502.2 443.73 502.1 443.37 501.99 443C501.68 441.37 501.38 439.74 501.07 438.12C501.05 434.74 501.03 431.37 501.01 428C502.31 425.07 502.84 421.94 504.65 419.18C509.01 412.56 515.32 407.84 521.4 402.92C530.2 395.8 539.06 388.57 546.82 380.31C580.11 344.88 594.76 296.96 576.07 250.47C572.04 240.45 566.88 230.79 560.32 222.2C557.99 219.14 555.76 215.44 552.5 213.38C540.53 214.12 528.3 219.34 517.28 223.77C501.94 229.95 485.8 235.96 469.48 238.86C455.8 241.28 441.31 241.07 427.66 238.66C421.17 237.52 414.14 233.48 407.78 233.5C424.99 246.81 447.86 253.44 469.5 251.3C488.63 249.42 509.59 240.39 527.37 252.07C537.77 258.9 543.97 271.11 547.88 282.56C549.15 286.29 549.38 290.43 550.91 294C551.16 296.72 551.41 299.44 551.65 302.16C551.21 310.92 551.94 319.56 550.66 328.36C548.4 343.93 542.05 358.99 533.83 372.31C524.06 388.13 503.31 408.01 498.02 424.54C495.59 432.13 496.98 439.59 497.43 447.31C497.95 456.41 499.13 465.44 499.98 474.5C500.44 479.33 500.43 484.2 501.15 489C500.8 499 500.46 509 500.11 519C499.82 521.38 499.53 523.77 499.24 526.15C498.27 530.43 497.31 534.72 496.35 539C496.13 539.99 495.92 540.97 495.7 541.96C493.39 546.81 491.92 552.19 489.58 557.13C487.22 562.14 483.8 566.55 481.5 571.56C480.27 569.86 479.79 567.73 478.28 566.21C473.88 561.78 460.15 556.7 454.05 555.85C449.01 552.1 447.98 537.83 446.84 531.53C442.91 509.8 438.94 487.68 431.67 466.76C427.78 455.57 422.65 444.34 415.98 434.52C411.99 428.62 407.65 422.94 402.36 418.12C399.17 415.21 395.86 412.51 391.99 410.52C386.84 407.88 381.36 406.33 375.54 407.23C368.83 408.28 362.8 412.98 357.99 417.49C347.62 427.22 339.84 439.07 332.83 451.33C330.38 455.61 328.23 460.04 325.91 464.39C322.96 469.9 320.34 475.59 317.76 481.29C314.51 488.44 311.35 495.67 308.48 502.99C305.28 511.17 302.27 519.41 299.13 527.61C297.64 531.49 296.82 535.53 293.5 538.21C287.38 537.28 287.12 531.79 285.91 526.51C283.34 515.28 281.99 504.03 281.81 492.5C281.26 458.54 290.35 426.88 300.38 394.79C303.32 385.36 306.45 375.73 310.04 366.52C312.03 361.42 316 355.17 315.5 349.81C292.85 390.54 265.76 447.44 268.54 494.75C269.33 508.32 271.31 523.08 278.59 534.9C281.27 539.26 285.51 545.34 291.45 544.72C295.22 544.32 296.72 539.71 298.42 536.91C303.59 528.37 308.32 519.59 313.61 511.12C329.98 484.86 352.99 446.17 389.92 462.56C394.87 464.75 399.31 467.52 403.03 471.48C408.51 477.28 412.63 484.15 416.34 491.18C422.84 503.49 425.71 517.27 431.12 530C431.71 531.68 432.31 533.35 432.91 535.03C433.38 537.02 433.86 539.01 434.34 541C435.14 543.83 435.93 546.67 436.73 549.5C434.51 548.97 432.29 548.45 430.07 547.92C424.05 546.27 418.02 544.62 412 542.97C404.73 540.29 387.63 538.09 380.09 539C376.33 537.28 368.05 537.6 363.96 538.86C339.95 537.92 310.99 550.84 288.57 559.13C278.58 562.83 268.18 566.87 257.5 567.97C228.84 570.92 199.13 548.82 179.63 529.87C173.64 524.05 168.6 517.42 163.12 511.15C156.2 500.03 148.56 489.6 142.67 477.79C131.4 455.17 124.81 430.57 122.2 405.49C120.21 386.43 121.39 367.26 124.68 348.44C142.67 245.51 219.13 167.79 320.57 144.27C362.97 134.43 407.42 134.63 449.42 146.2C460.71 149.31 471.66 153.35 482.33 158.18C488.07 160.78 494.4 165.22 500.44 166.5C482.48 154.5 462.76 144.17 442.2 137.37C414.35 128.17 384.9 123.07 355.5 123.88C346.45 124.14 337.43 125.53 328.47 126.72C252 136.84 180.36 174.9 129.49 232.99C123.22 240.16 117.93 248.14 112.36 255.83C96.19 278.16 81.69 300.44 71.84 326.37C68.89 334.13 65.27 342.3 63.87 350.46ZM1173.96 161.77C1167.53 164.91 1153.45 173.23 1149.07 178.61C1143.53 185.42 1139.86 196.12 1137.69 204.5C1139.3 205.69 1140.9 206.88 1142.5 208.08C1147.44 201.47 1148.38 191.14 1153.51 184C1156.15 180.33 1160.65 177.55 1163.97 174.47C1167.9 170.82 1171.45 166.81 1175.03 162.84C1176.33 161.78 1177.46 160.19 1178.83 159.29C1182.77 156.71 1188.35 155.9 1190.96 151.4C1194.07 146.02 1185.56 128.8 1180.5 126.16C1179.19 126.94 1177.89 127.72 1176.58 128.5C1176.69 136 1187.33 142.49 1184.72 151.29C1183.02 157 1177.35 158.39 1173.96 161.77ZM333 162.22C331.36 163.08 329.72 163.94 328.08 164.81C304.22 175.66 287.39 210.82 286.66 235.89C286.66 242.29 286.66 248.68 286.67 255.08C286.47 277.92 300.12 304.35 314.5 321.57C314.62 320.84 315.32 320.26 315.34 319.52C315.39 317.49 310.32 309.72 309.3 307.24C305.62 298.36 302.76 288.83 301.39 279.31C296.94 248.28 307.5 213.04 332.24 192.73C337.87 188.12 343.95 184.07 350.63 181.15C354.06 179.66 357.79 178.7 361.11 177.08C364.07 176.58 367.04 176.09 370 175.59C371.33 175.36 372.67 175.14 374 174.91C375.67 174.85 377.33 174.78 379 174.72C384.65 174.92 390.3 175.12 395.94 175.32C397.93 175.58 399.91 175.83 401.9 176.08C406.18 177.87 411.41 178.19 415.98 179.52C426.56 182.58 436.82 186.82 446.59 191.9C455.36 196.45 463.87 201.82 471.88 207.61C476.05 210.62 480.25 214.84 484.81 217.07C486.13 217.88 487.46 218.69 488.78 219.5C487.59 218.33 486.4 217.15 485.21 215.98C479.31 207.64 469.93 200.91 462.1 194.43C436.95 173.64 404.5 157.54 371.5 156C358.31 155.38 345.03 156.35 333 162.22ZM1055.47 161.83C1055.31 161.9 1055.16 161.98 1055 162.06C1052.24 163.83 1050.34 166.12 1049.01 169.11C1045.83 173 1043.93 180.18 1045.93 184.88C1045.99 185.26 1046.04 185.63 1046.1 186C1046.38 186.99 1046.67 187.99 1046.95 188.98C1047.27 189.66 1047.58 190.34 1047.9 191.03C1048.26 191.66 1048.63 192.3 1048.99 192.94C1049.3 193.31 1049.61 193.69 1049.91 194.07C1049.99 194.38 1050.06 194.69 1050.14 195C1050.77 195.72 1051.4 196.43 1052.03 197.15C1052.71 197.75 1053.38 198.36 1054.05 198.97C1054.37 199.28 1054.68 199.59 1055 199.91C1055.28 200.05 1055.57 200.19 1055.85 200.33C1060.09 205.13 1069.16 205.96 1074.99 204.32C1075.33 204.22 1075.66 204.12 1076 204.02C1083.69 202.73 1092.73 196.15 1093.89 188C1094.24 185.98 1094.58 183.97 1094.92 181.95C1095.26 178.38 1094.76 175.72 1093.16 172.55C1093.11 172.37 1093.06 172.18 1093 172C1092.9 171.67 1092.8 171.33 1092.7 171C1092.47 170.65 1092.23 170.3 1092 169.95C1091.7 169.6 1091.4 169.25 1091.1 168.9C1089.75 164.78 1085.84 161.79 1081.94 159.98C1081.55 159.72 1081.16 159.46 1080.77 159.21C1077.44 157.12 1073.86 156.66 1070 156.87C1069 156.92 1068 156.96 1067 157.01C1062.73 157.27 1058.68 158.99 1055.47 161.83ZM1067.15 162.14C1067.77 162.1 1068.38 162.06 1069 162.02C1071.69 162.36 1074.38 162.7 1077.07 163.04C1078.05 163.61 1079.02 164.18 1080 164.75C1080.22 164.85 1080.43 164.94 1080.65 165.04C1081.43 165.64 1082.22 166.23 1083 166.83C1083.18 166.93 1083.35 167.03 1083.53 167.13C1084.92 169.25 1086.31 171.38 1087.7 173.5C1087.3 173.62 1086.89 173.74 1086.49 173.86C1083.98 169.36 1080.17 165.93 1075.1 164.75C1072.06 164.52 1069.03 164.29 1066 164.06C1065.37 164.07 1064.74 164.09 1064.12 164.11C1065.13 163.45 1066.14 162.8 1067.15 162.14ZM1051.13 177.3C1051.35 177.24 1051.58 177.19 1051.8 177.13C1052.13 200.15 1080.19 205.75 1088.21 184.05C1088.42 184.05 1088.63 184.05 1088.83 184.05C1088.7 192.95 1080.4 195.4 1074.08 198.92C1068.98 198.87 1064.89 198.01 1059.99 196.96C1059.36 196.61 1058.72 196.26 1058.09 195.91C1057.73 195.6 1057.37 195.28 1057.02 194.97C1056.68 194.64 1056.35 194.32 1056.02 193.99C1055.7 193.64 1055.39 193.29 1055.07 192.94C1054.7 192.32 1054.33 191.71 1053.96 191.1C1051.66 186.18 1051.18 182.71 1051.13 177.3ZM1095.92 195.01C1097.48 196.04 1099.03 197.06 1100.58 198.09C1102.61 199.44 1104.63 200.8 1106.66 202.16C1107.48 203.16 1108.31 204.16 1109.14 205.16C1110.41 205.8 1111.68 206.43 1112.95 207.07C1113.64 207.63 1114.32 208.2 1115 208.77C1116.69 209.59 1118.39 210.41 1120.08 211.22C1121.3 211.52 1122.51 211.81 1123.72 212.1C1126.43 214.82 1130.25 217.22 1134.02 217.8C1134.72 218.22 1135.41 218.65 1136.11 219.07C1136.45 219.32 1136.78 219.57 1137.12 219.82C1138.41 220.56 1139.7 221.31 1140.99 222.05C1145.13 224.53 1149.28 227.02 1153.42 229.5C1153.7 231.63 1153.41 234.1 1154.47 236.03C1155.71 238.29 1165.97 244.42 1168.54 245.06C1169.98 245.42 1171.42 245.19 1172.83 245.64C1174.81 246.27 1176.66 247.95 1178.32 249.14C1197.05 262.64 1215.93 276.44 1235.49 288.99C1240.56 292.24 1257.55 303.18 1262.5 304.07C1275.07 306.35 1287.11 288.95 1278.02 278.84C1276.05 277.55 1274.08 276.26 1272.1 274.97C1262.42 269.95 1252.73 264.93 1243.04 259.91C1241.07 258.93 1239.11 257.94 1237.15 256.96C1233.23 253.98 1228.64 253.25 1224.27 251.28C1215.05 247.09 1206.6 241.19 1197.31 237.19C1194.76 236.09 1193.16 237.25 1190.78 236.72C1187.35 235.95 1183.08 232.29 1180.1 230.41C1176.3 228.02 1165.67 220.72 1161.5 220.95C1159.91 221.04 1158.74 222.05 1157.5 222.92C1147.7 217.52 1137.9 212.12 1128.09 206.72C1126.71 203.65 1123.96 202.5 1121 201.14C1116.46 198.16 1112.13 196.92 1106.93 195.78C1104.7 194.82 1102.48 193.85 1100.25 192.89C1099.49 192.52 1098.72 192.15 1097.95 191.77C1097.13 191.4 1096.32 191.02 1095.5 190.64C1094.96 191.59 1094.42 192.55 1093.87 193.5C1094.56 194 1095.24 194.51 1095.92 195.01ZM1128.93 228.57C1127.95 230.98 1126.98 233.4 1126 235.81C1124.33 236.45 1122.66 237.1 1120.98 237.75C1120.32 238.47 1119.66 239.18 1119 239.9C1118.65 240.5 1118.3 241.11 1117.95 241.71C1117.39 243.14 1116.82 244.57 1116.25 246C1115.83 246.91 1115.41 247.82 1114.99 248.74C1114.94 249.54 1114.9 250.35 1114.85 251.15C1115.25 252.14 1115.64 253.12 1116.04 254.1C1115.07 257.4 1114.1 260.7 1113.12 264C1113.05 264.17 1112.98 264.35 1112.91 264.52C1112.33 265.68 1111.75 266.84 1111.17 268C1110.71 269.04 1110.25 270.08 1109.79 271.12C1109.2 272.05 1108.61 272.99 1108.02 273.92C1103.73 278.73 1100.84 286.62 1099.68 292.89C1099.28 293.69 1098.89 294.48 1098.5 295.27C1098.33 294.51 1098.17 293.76 1098 293C1098.02 292.69 1098.03 292.38 1098.05 292.07C1099.1 290.45 1098.76 290.56 1098.5 288.56C1097.97 289.44 1097.45 290.32 1096.92 291.2C1096.23 292.18 1095.53 293.16 1094.84 294.13C1088.6 303.31 1084.62 316.79 1080.7 327.23C1079.73 329.83 1076.16 337.03 1076.68 339.54C1077.04 341.35 1078.18 341.31 1078.5 342.83C1077.66 344.56 1076.82 346.28 1075.98 348C1075.88 348.29 1075.78 348.58 1075.67 348.87C1074.83 351.48 1075.32 353.71 1076.74 356.04C1077.18 356.72 1077.61 357.39 1078.05 358.07C1080.03 359.37 1082.02 360.68 1084 361.99C1084.32 362.09 1084.64 362.19 1084.95 362.3C1088.13 363.61 1091.84 363.47 1095.05 362.3C1096.09 361.88 1097.13 361.47 1098.17 361.06C1099.37 360.04 1100.57 359.02 1101.77 358C1101.86 357.75 1101.96 357.5 1102.06 357.25C1102.33 356.5 1102.61 355.75 1102.88 355C1103.63 352.49 1104.39 349.99 1105.14 347.48C1105.69 346.26 1106.09 344.53 1107.02 343.53C1108.3 342.18 1109.69 342.04 1110.65 340.21C1114.19 333.47 1116.19 325.34 1118.57 318.13C1120.63 311.91 1123.38 305.54 1124.02 299C1124.12 298.37 1124.23 297.74 1124.34 297.11C1124.59 295.07 1124.84 293.04 1125.1 291C1125.07 288.67 1125.03 286.33 1125 284C1124.76 281.35 1124.53 278.7 1124.29 276.06C1124.29 275.35 1124.28 274.64 1124.28 273.93C1125.17 270.29 1126.06 266.64 1126.96 263C1127.31 262.17 1127.67 261.33 1128.03 260.5C1127.74 260.23 1127.44 259.96 1127.14 259.69C1127.26 259.2 1127.38 258.7 1127.5 258.21C1128.45 257.83 1129.4 257.45 1130.36 257.07C1130.92 256.15 1131.49 255.23 1132.06 254.31C1132.4 253.18 1132.75 252.06 1133.09 250.94C1133.46 249.7 1133.82 248.46 1134.18 247.22C1135.65 244.19 1135.46 242.03 1133.14 239.46C1133.05 239.31 1132.95 239.15 1132.86 239C1132.81 238.33 1132.76 237.67 1132.71 237C1133.75 233.17 1134.8 229.33 1135.85 225.5C1134.4 224.7 1132.95 223.89 1131.5 223.09C1130.64 224.92 1129.79 226.75 1128.93 228.57ZM1096.89 300.74C1095.19 303.66 1093.49 306.58 1091.79 309.5C1091.77 310.34 1091.75 311.17 1091.73 312.01C1090.61 308.53 1095.9 298.82 1097.5 295C1097.3 296.92 1097.09 298.83 1096.89 300.74ZM704.5 371.3C705.35 367.57 707.55 364.06 709.06 360.51C713.62 349.83 718.72 339.37 723.15 328.63C725.2 323.66 730.1 317.18 729.6 311.68C728.83 303.38 718.99 302.17 712.5 302.13C696.31 302.01 679.94 304.56 664.75 310.29C624.42 325.5 596.08 365.94 599.37 409.49C600.2 420.45 605.49 443.26 615.5 449.39C621.34 445.54 621.87 438.94 622.05 432.5C622.35 422.17 621.08 411.82 621.94 401.5C624.62 369.11 642.26 342.88 674.24 333.64C681.43 331.57 690.07 328.1 697.58 329.5C682.5 367.17 664.95 404 648.57 441.12C645.3 448.53 642.29 456.06 638.89 463.42C636.27 469.1 633.44 474.69 638.18 480.3C642.84 485.8 653.85 485.6 657.72 479.23C660.19 475.19 661.43 470.14 663.38 465.82C668.65 454.14 673.69 442.36 679.42 430.91C681.48 426.8 683.07 422.24 685.74 418.5C687.94 420.52 688.3 425.27 688.94 428.5C690.23 435.03 691.84 441.48 693.57 447.91C701.24 476.48 709.53 511.1 735.36 529.09C743.92 535.06 758.52 543.2 768.9 537.41C775.31 533.83 776.28 524.25 771.65 518.83C767.42 513.87 759.56 514.64 754.12 511.38C745.53 506.23 739.22 497.64 734.49 489.02C724.64 471.05 719.44 450.19 715.39 430.24C714.1 423.9 712.44 408.76 709.68 403.8C708.77 402.17 707.29 400.93 706.16 399.5C728.36 378.45 752.19 358.73 775.65 339.13C783.11 332.89 799.07 324.25 790.73 312.76C782.23 301.04 771.01 312.19 763.97 318.47C751.64 329.48 739.26 340.42 726.95 351.45C719.71 357.93 712.68 366.1 704.5 371.3ZM1089.95 317C1088.9 319.38 1087.85 321.76 1086.8 324.14C1086.51 323.93 1086.22 323.71 1085.92 323.5C1087.12 320.55 1088.31 317.6 1089.5 314.65C1089.65 315.43 1089.8 316.22 1089.95 317ZM1247.97 366.5C1252.78 355.11 1259.26 343.9 1261.32 331.56C1262.41 325.04 1260.76 317.62 1253.5 315.89C1248.78 314.77 1243.11 316.82 1240.77 321.27C1238.63 325.34 1240.3 330 1238.64 334.23C1234.27 345.37 1228.67 355.98 1223.5 366.76C1219.58 367.43 1215.01 366.51 1211.25 367.71C1202.25 370.59 1200.46 380.98 1204.5 388.24C1206.94 388.24 1209.38 388.24 1211.82 388.24C1210.61 395.69 1205.78 403.25 1202.67 410.2C1197.02 422.83 1190.88 435.66 1186.25 448.69C1183.18 457.33 1182.62 469.77 1193.8 472.63C1198.66 473.87 1205.7 472.4 1207.46 466.94C1208.9 462.5 1206.41 458.2 1208.25 452.69C1211.26 443.7 1215.65 434.79 1219.66 426.2C1225.5 413.68 1230.8 400.92 1236.85 388.5C1241.73 387.46 1247.17 388.57 1251.82 386.35C1257.11 383.81 1263.42 373.56 1258.04 368.45C1255.62 366.16 1250.99 367.11 1247.97 366.5ZM316.5 321.6C316.5 324.13 316.79 325.59 319.67 326.5C318.61 324.87 317.56 323.23 316.5 321.6ZM1160.78 453.5C1157.22 448.28 1164.3 435.68 1166.56 430.08C1171.24 418.45 1182.54 400.63 1177.41 388.08C1175.76 384.04 1172.1 384.54 1169.6 381.88C1165.73 377.73 1165.07 375 1159.34 372.15C1154.17 369.58 1148.23 368.3 1142.5 367.96C1134.84 367.51 1127.04 368.87 1119.81 371.37C1093.69 380.38 1076.29 410.78 1075.86 437.5C1075.61 452.8 1080.53 469.6 1096.81 474.59C1106.36 477.52 1117.5 476.57 1126.39 471.91C1130.53 469.75 1134.25 465.85 1138.5 464.4C1145.16 478.06 1161.9 476.53 1173.13 469.6C1176.2 467.71 1179.88 465.46 1181.64 462.19C1184.94 456.05 1181.1 447.02 1173.21 448.58C1168.5 449.51 1165.75 453.67 1160.78 453.5ZM1263.71 428.5C1268.27 428.19 1272.92 428.76 1277.5 428.94C1296.16 429.66 1331.38 428.76 1334.84 404.5C1335.32 401.16 1335.37 397.85 1334.94 394.5C1334.25 389.19 1332 383.98 1328.72 379.75C1316.77 364.35 1291.92 365.35 1276.12 373.61C1251.33 386.57 1233.56 420.96 1243.25 448.33C1251.84 472.61 1279.86 477.08 1301.52 468.02C1307.64 465.46 1318.59 461.15 1320.5 454.02C1322.38 446.94 1315.92 439.03 1308.39 440.69C1302.03 442.1 1297.61 447.76 1291.37 449.81C1276.08 454.83 1259.64 446.26 1263.71 428.5ZM1062.5 381.36C1057.01 376.44 1051.9 373.27 1044.56 371.72C1007.49 363.9 977.93 394.59 970.94 428.5C967.36 445.89 969.23 467.56 986.64 476.86C995.04 481.34 1003.01 479.96 1011.97 480.5C1006.39 494.72 996.13 514.01 985.51 524.99C980.57 530.09 973 534.95 965.64 532.82C952.44 529 962.46 509.78 946.5 509.3C944.76 509.24 943.24 509.5 941.62 510.15C932.7 513.71 932.38 523.53 934.93 531.52C939.19 544.88 948.98 555.58 963.5 557.25C982.37 559.42 997.76 547.11 1008.89 533.38C1017.61 522.63 1024.02 510.28 1030.69 498.22C1038.02 484.99 1046.16 471.82 1052.61 458.14C1057.2 448.38 1060.45 438.05 1064.58 428.11C1068.79 418.01 1074.04 406.57 1074.06 395.5C1074.08 385.69 1073.53 380.7 1062.5 381.36ZM834.02 458.5C830.94 452.78 837.43 441.23 839.88 435.38C844.57 424.16 856.91 402.93 850.18 391.32C848.43 388.29 845.73 388.98 843.53 386.96C842.57 386.09 841.94 384.38 841.15 383.33C838.96 380.4 835.97 378.36 832.73 376.73C827.38 374.03 821.47 372.63 815.5 372.26C807.91 371.79 800.18 373.06 793 375.5C767.25 384.27 749.09 414.34 747.36 440.53C746.09 459.77 755.4 479.87 776.55 481.64C785.06 482.35 793.43 480.4 800.92 476.42C804.66 474.44 807.72 471.31 811.5 469.67C817.3 479.23 826.64 482.07 837.4 478.83C841.28 477.67 844.66 475.17 848.5 474.22C847.45 478.05 845.44 481.76 843.86 485.43C838.67 497.5 833.07 509.63 828.43 521.91C825.84 528.79 827.85 536.07 835.45 538.2C846.13 541.19 849.33 531.54 852.46 523.94C857.33 512.14 862.18 500.33 867.14 488.57C869.51 482.95 871.12 476.57 874.5 471.52C882.16 478.12 890.36 481.03 900.5 481.11C935.33 481.4 961.55 449.71 964.85 416.5C966.73 397.6 960.34 377.04 939.47 373.12C935.49 372.38 931.51 372.43 927.5 372.77C920.05 373.39 914.19 376.31 907.5 379.24C902.62 372.91 890.86 370.41 886.58 379.08C884.22 383.87 882.78 389.29 880.68 394.23C875.1 407.34 869.39 420.46 864.33 433.78C861.49 441.26 859.96 450.44 855.5 457.07C846.34 447.9 842.6 459.33 834.02 458.5ZM1270.24 408.5C1276.42 398.22 1285.56 388.62 1298.52 388.43C1304.38 388.35 1311.84 390.58 1313.46 397.03C1315.03 403.26 1309.57 406.34 1304.43 407.8C1296.49 410.04 1278.03 410.71 1270.24 408.5ZM1132.73 389.4C1141.2 387.67 1154.12 390.39 1153.68 401.48C1153.5 406.21 1150.25 411.54 1148.36 415.81C1142.93 428.1 1136.67 440.9 1125.89 449.42C1120.77 453.46 1112.9 456.7 1106.44 454.12C1097.06 450.37 1097.12 437.67 1098.79 429.45C1102.23 412.5 1114.62 393.08 1132.73 389.4ZM1027.78 392.42C1037.29 390.68 1049.6 394.54 1048.65 406.44C1048.28 411.03 1045.2 415.85 1043.55 420.09C1037.76 434.96 1021.18 465.52 1000.78 457.68C992.32 454.42 992.21 442.89 993.06 435.5C995.08 417.7 1008.95 395.86 1027.78 392.42ZM809.71 393.43C817.6 392.82 827.22 397.32 826.98 406.5C826.85 411.17 823.15 416.54 821.36 420.8C816.08 433.42 809.71 446.52 798.63 455.08C793.01 459.41 785.18 462.37 778.32 459.2C769.4 455.09 769.93 442.31 771.66 434.31C775.51 416.44 789.61 394.99 809.71 393.43ZM923.81 393.41C938.21 390.74 942.92 402.29 941.74 414.48C940.14 431.09 930.61 447.2 915.98 455.48C909.43 459.19 900.8 461.29 893.69 457.78C882.68 452.35 885.53 441.48 888.88 432.44C894.95 416.05 904.63 396.97 923.81 393.41ZM555.88 552.49C553.6 555.98 551.32 559.46 549.04 562.94C544.39 568.23 535.17 584.21 528.11 584.5C533.29 576.18 539.66 568.22 543.71 559.24C546.74 552.54 548.25 544.66 550.14 537.55C551.33 533.05 554.11 520.7 546.48 519.97C539.36 519.29 535.36 529.38 533.01 534.5C526.02 549.72 521.36 566.33 515.52 582.04C513.54 587.38 507.87 595.09 509.5 600.64C514.91 599.54 520.29 596.17 525.32 593.78C541.72 586 556.07 575.02 570.04 563.52C576.8 557.96 585.03 552.1 590.26 545.07C591.17 543.71 592.09 542.36 593 541C597.7 533.81 601.45 525.61 605.51 518.01C607.86 513.62 610.75 509.01 610.92 504.01C611.18 503.84 611.45 503.67 611.71 503.5C612.1 499.61 612.76 495.31 611.11 491.84C610.75 491.16 610.4 490.48 610.04 489.79C608.72 488.21 608.02 488.13 606 487.93C598.09 487.89 592.11 495.34 587.61 501.15C578.43 512.98 571.07 526.24 563.75 539.26C561.24 543.72 557.92 547.83 555.88 552.49ZM1005.8 589.5C1002.95 583.7 994.61 581.04 988.5 580.86C973.42 580.39 960.65 593.38 961.11 608.5C961.57 623.79 975.06 636.63 990.55 634.32C996.29 633.47 1003.44 631.15 1005.93 625.5C1005.37 622.88 1004.76 621.79 1002.5 620.29C997.73 620.66 994.42 624.68 989.5 625.35C979.09 626.77 969.52 617.85 969.68 607.5C969.84 596.22 980.54 588.1 991.46 590.12C995.61 590.89 998.44 594.18 1002.5 594.72C1004.81 593.19 1005.38 592.2 1005.8 589.5ZM1206.72 589.5C1204.2 583.95 1196.23 581.3 1190.5 580.83C1174.89 579.56 1161.7 593.12 1162.02 608.5C1162.34 624 1175.9 636.53 1191.51 634.19C1197.12 633.35 1204.31 631.22 1206.62 625.5C1206.06 622.64 1205.18 621.4 1202.5 620.22C1198.54 621.2 1195.67 624.44 1191.5 625.18C1180.93 627.04 1171.07 619.3 1170.71 608.5C1170.32 597.04 1180.26 588.32 1191.5 590.05C1195.66 590.69 1198.64 593.6 1202.5 594.84C1205.23 593.56 1206.16 592.46 1206.72 589.5ZM803 590.83C804.67 590.85 806.33 590.87 808 590.89C810.22 591.1 812.45 591.3 814.67 591.5C815.51 601.38 814.86 611.57 814.9 621.5C814.91 625.45 813.87 630.34 816.5 633.54C824.58 635.22 823.28 629.51 823.28 623.5C823.27 613.92 821.94 600.6 823.67 591.5C828.25 590.98 833.95 592.25 837.83 589.5C837.93 587.83 838.03 586.17 838.12 584.5C833.53 580.62 816.99 582.44 810.5 582.41C807.83 582.4 804.2 581.85 801.8 583.32C799.42 584.78 800.04 587.08 800.5 589.29C801.33 589.81 802.17 590.32 803 590.83ZM1029.16 625.5C1026.99 617.67 1028.57 601.25 1028.59 592.5C1028.6 587.12 1028.88 580.32 1021.34 583.5C1019.19 587.39 1019.87 592.11 1019.88 596.5C1019.91 604.5 1019.86 612.5 1019.89 620.5C1019.91 624.94 1019.08 629.63 1021.5 633.46C1027.99 635.75 1036.64 634.41 1043.5 634.35C1045.76 634.33 1048.99 634.88 1050.89 633.36C1052.78 631.85 1051.99 629.44 1051.69 627.5C1047.24 623.91 1035.14 626.24 1029.16 625.5ZM646.29 633.5C649.5 635.13 652.95 634.66 656.5 634.64C665.71 634.58 673.73 631.37 679.48 623.96C688.94 611.78 684.91 593.42 671.57 585.94C667.87 583.86 663.73 582.76 659.5 582.57C655.31 582.39 650.34 582.04 646.5 583.7C644.06 587.37 644.92 592.18 644.94 596.5C644.98 604.83 644.97 613.17 644.95 621.5C644.94 625.56 644.27 629.97 646.29 633.5ZM730.5 583.83C724.66 580.77 715.06 582.54 708.5 582.57C705.13 582.59 702.38 582.35 699.5 584.1C697.57 588.21 698.57 593.59 698.5 598.11C698.37 607.28 697.16 624.14 698.94 632.5C703.73 636.6 715.23 634.69 721.5 634.68C724.8 634.67 727.75 635.03 730.73 633.5C731.75 631.02 731.76 629.98 730.73 627.5C725.14 624.24 714.07 626.68 707.39 625.7C707.39 621.64 707.39 617.57 707.39 613.5C713.46 612.68 725.45 615.38 728.55 609.5C728.38 607.91 728.4 606.57 727.07 605.41C724.2 602.94 711.87 604.7 707.37 603.57C707.37 599.55 707.37 595.52 707.37 591.5C713.99 590.84 724.89 592.77 730.5 589.99C731.67 587.41 731.66 586.41 730.5 583.83ZM749.5 583.4C746.73 586.75 747.65 591.37 747.69 595.5C747.78 604.5 747.67 613.5 747.69 622.5C747.71 626.58 746.86 630.68 749.5 634C751.2 634 752.91 634 754.61 634C758.41 626.75 755.79 610.2 756.5 601.34C763.58 607.96 768.74 617.27 774.42 625.1C776.83 628.43 778.76 632.75 782.5 634.6C788.73 633.88 787.89 628.61 787.81 623.5C787.67 613.5 787.89 603.5 787.83 593.5C787.79 587.93 789.11 583.72 782.5 582.75C778.28 585.32 779.21 588.93 779.16 593.5C779.08 600.67 780.06 608.45 778.5 615.41C772.13 607.58 766.31 599.33 760.35 591.18C756.93 586.5 756.14 582.18 749.5 583.4ZM861.5 582.53C856.66 584.45 856.02 589.14 854.27 593.71C850.76 602.86 846.94 611.87 843.51 621.04C841.98 625.13 839.2 629.16 841.5 633.24C848.98 636.74 849.99 627.4 852.5 622.33C858.52 622.33 864.55 622.33 870.57 622.33C872.47 626.4 873.16 632.59 877.5 634.52C879.02 633.85 880.54 633.17 882.06 632.5C883.29 628.08 880.46 623.76 878.79 619.67C875.17 610.83 871.86 601.77 868.66 592.76C867.07 588.28 866.34 584 861.5 582.53ZM897.11 586C897.11 590.33 897.11 594.67 897.1 599C897.11 603.33 897.11 607.67 897.11 612C897.09 615 897.06 618 897.04 621C896.59 625.16 896.16 629.81 898.5 633.37C904.85 635.92 913.7 634.44 920.5 634.41C923.95 634.39 926.51 634.63 929.27 632.5C929.21 630.83 929.16 629.17 929.11 627.5C928.07 627.04 927.04 626.58 926 626.12C923.67 626.11 921.33 626.1 919 626.09C914.66 625.89 910.31 625.7 905.97 625.5C904.73 616.08 905.62 606.03 905.62 596.5C905.62 591.85 906.72 586.67 903.5 583.01C900.17 582.66 898.29 582.65 897.11 586ZM1070.5 583.15C1067.83 582.69 1065 582.27 1064.01 585.56C1062.93 589.14 1063.69 593.78 1063.68 597.5C1063.66 605.5 1063.57 613.5 1063.65 621.5C1063.69 625.53 1062.8 630.43 1065.5 633.67C1068.02 634.11 1071.03 634.65 1072 631.45C1073.06 627.93 1072.23 623.16 1072.23 619.5C1072.22 611.5 1072.23 603.5 1072.29 595.5C1072.32 591.36 1073.11 586.54 1070.5 583.15ZM1091.5 582.66C1087.07 585.38 1088.17 589.73 1088.18 594.5C1088.19 603.17 1088.14 611.83 1088.17 620.5C1088.17 623.82 1087.22 628.91 1088.55 632C1089.67 634.61 1092.33 633.99 1094.5 633.71C1097.09 630.73 1096.45 627.14 1096.52 623.38C1096.66 616.25 1095.48 608.31 1097.5 601.52C1105.17 612.3 1112.83 623.08 1120.5 633.86C1123.03 634.12 1125.89 634.44 1126.91 631.41C1128 628.17 1127.19 623.87 1127.19 620.5C1127.2 612.17 1127.19 603.83 1127.2 595.5C1127.2 591.37 1128.12 586.73 1125.5 583.31C1123.26 582.93 1120.64 582.2 1119.41 584.86C1118.15 587.58 1118.77 591.57 1118.78 594.5C1118.8 601.33 1119.11 608.3 1118.5 615.09C1111.65 609.17 1105.89 598.51 1100.47 591.04C1097.74 587.28 1096.35 583.44 1091.5 582.66ZM1143.5 583.13C1140.87 586.62 1141.55 591.28 1141.57 595.5C1141.6 604.17 1141.47 612.83 1141.53 621.5C1141.56 625.62 1140.72 630.54 1143.5 633.81C1145.99 634.06 1148.89 634.41 1149.88 631.38C1151.1 627.66 1150.12 622.4 1150.14 618.5C1150.17 611.17 1150.12 603.83 1150.13 596.5C1150.13 593.1 1150.88 588.86 1149.94 585.56C1149.01 582.33 1146.08 582.76 1143.5 583.13ZM653.57 625.5C653.57 614.17 653.57 602.83 653.57 591.5C657.52 590.95 661.46 590.72 665.23 592.33C677.94 597.75 678.85 614.76 668.23 622.7C663.87 625.96 658.76 626.32 653.57 625.5ZM861.5 599.32C864.47 602.26 866.38 609.4 866.76 613.61C863.33 613.61 859.9 613.61 856.47 613.61C858.14 608.84 859.82 604.08 861.5 599.32Z" fill="#fdfdfd" fill-rule="evenodd" stroke="#fdfdfd" stroke-width="0.25" stroke-linejoin="round"/>
<path d="M1067 157.01C1068 156.96 1069 156.92 1070 156.87C1073.86 156.66 1077.44 157.12 1080.77 159.21C1081.16 159.46 1081.55 159.72 1081.94 159.98C1085.84 161.79 1089.75 164.78 1091.1 168.9C1089.74 169.1 1088.37 169.3 1087 169.5C1087.83 171.05 1088.67 172.61 1089.5 174.16C1090.29 174.28 1091.08 174.39 1091.88 174.5C1092.3 173.85 1092.73 173.2 1093.16 172.55C1094.76 175.72 1095.26 178.38 1094.92 181.95C1092.95 181.8 1090.97 181.65 1089 181.5C1090.32 184.7 1089.33 188.17 1091.5 190.87C1091.83 189.58 1092.17 188.29 1092.5 187C1092.96 187.33 1093.43 187.67 1093.89 188C1092.73 196.15 1083.69 202.73 1076 204.02C1075.47 203.85 1074.93 203.67 1074.4 203.5C1074.59 203.77 1074.79 204.04 1074.99 204.32C1069.16 205.96 1060.09 205.13 1055.85 200.33C1057.23 199.21 1058.61 198.08 1059.99 196.96C1064.89 198.01 1068.98 198.87 1074.08 198.92C1074.22 199.42 1074.36 199.91 1074.5 200.4C1074.36 199.91 1074.22 199.42 1074.08 198.92C1080.4 195.4 1088.7 192.95 1088.83 184.05C1088.63 183.74 1088.42 183.44 1088.21 183.13C1088.48 179.51 1088.22 177.07 1086.49 173.86C1086.89 173.74 1087.3 173.62 1087.7 173.5C1086.31 171.38 1084.92 169.25 1083.53 167.13C1083.35 167.03 1083.18 166.93 1083 166.83C1082.22 166.23 1081.43 165.64 1080.65 165.04C1080.43 164.94 1080.22 164.85 1080 164.75C1079.02 164.18 1078.05 163.61 1077.07 163.04C1077.22 162.89 1077.36 162.73 1077.5 162.58C1077.36 162.73 1077.22 162.89 1077.07 163.04C1074.38 162.7 1071.69 162.36 1069 162.02C1068.5 161.88 1068 161.74 1067.5 161.6C1067.38 161.78 1067.27 161.96 1067.15 162.14C1066.14 162.8 1065.13 163.45 1064.12 164.11C1063.8 164.17 1063.48 164.24 1063.17 164.3C1062.61 163.87 1062.06 163.43 1061.5 163C1061.36 163.37 1061.21 163.74 1061.07 164.1C1060.71 164.37 1060.36 164.63 1060 164.9C1057.34 167.97 1054.69 171.03 1052.03 174.1C1051.99 174.4 1051.95 174.7 1051.9 175C1051.91 175.37 1051.92 175.73 1051.92 176.1C1051.45 176.49 1050.97 176.89 1050.5 177.28C1050.71 177.28 1050.92 177.29 1051.13 177.3C1051.18 182.71 1051.66 186.18 1053.96 191.1C1052.31 191.24 1050.65 191.37 1049 191.5C1049 191.98 1049 192.46 1048.99 192.94C1048.63 192.3 1048.26 191.66 1047.9 191.03C1047.58 190.34 1047.27 189.66 1046.95 188.98C1046.67 187.99 1046.38 186.99 1046.1 186C1046.04 185.63 1045.99 185.26 1045.93 184.88C1043.93 180.18 1045.83 173 1049.01 169.11C1049.15 169.24 1049.3 169.37 1049.44 169.5C1049.3 169.37 1049.15 169.24 1049.01 169.11C1050.34 166.12 1052.24 163.83 1055 162.06C1055.16 161.98 1055.31 161.9 1055.47 161.83C1058.68 158.99 1062.73 157.27 1067 157.01ZM333 162.22C333 162.65 333 163.07 333 163.5C332.17 164 331.33 164.5 330.5 165C329.69 164.94 328.89 164.87 328.08 164.81C329.72 163.94 331.36 163.08 333 162.22ZM1173.96 161.77C1174.31 162.13 1174.67 162.49 1175.03 162.84C1171.45 166.81 1167.9 170.82 1163.97 174.47C1160.65 177.55 1156.15 180.33 1153.51 184C1148.38 191.14 1147.44 201.47 1142.5 208.08C1140.9 206.88 1139.3 205.69 1137.69 204.5C1139.86 196.12 1143.53 185.42 1149.07 178.61C1153.45 173.23 1167.53 164.91 1173.96 161.77ZM1066 164.06C1069.03 164.29 1072.06 164.52 1075.1 164.75C1072.06 164.52 1069.03 164.29 1066 164.06ZM1091.1 168.9C1091.4 169.25 1091.7 169.6 1092 169.95C1091.7 169.6 1091.4 169.25 1091.1 168.9ZM1092.7 171C1092.8 171.33 1092.9 171.67 1093 172C1092.9 171.67 1092.8 171.33 1092.7 171ZM379 174.72C377.33 174.78 375.67 174.85 374 174.91C374.17 174.61 374.33 174.3 374.5 174C375.83 174 377.17 174 378.5 174C378.67 174.24 378.83 174.48 379 174.72ZM370 175.59C367.04 176.09 364.07 176.58 361.11 177.08C361.24 176.72 361.37 176.36 361.5 176C362.5 175.67 363.5 175.33 364.5 175C366.17 175 367.83 175 369.5 175C369.67 175.2 369.83 175.39 370 175.59ZM395.94 175.32C397.8 175.22 399.65 175.11 401.5 175C401.63 175.36 401.76 175.72 401.9 176.08C399.91 175.83 397.93 175.58 395.94 175.32ZM1047.5 177.29C1047.35 177.69 1047.19 178.1 1047.04 178.5C1047.19 178.67 1047.35 178.83 1047.5 179C1047.69 178.83 1047.89 178.67 1048.08 178.5C1047.89 178.1 1047.69 177.69 1047.5 177.29ZM1048.5 184.3C1048.57 181.7 1048.97 181.87 1046.54 181.5C1047.19 182.43 1047.85 183.37 1048.5 184.3ZM1053.96 191.1C1054.33 191.71 1054.7 192.32 1055.07 192.94C1054.7 192.32 1054.33 191.71 1053.96 191.1ZM1097.95 191.77C1098.05 192.02 1098.14 192.26 1098.23 192.5C1097.46 193.34 1096.69 194.17 1095.92 195.01C1095.24 194.51 1094.56 194 1093.87 193.5C1094.42 192.55 1094.96 191.59 1095.5 190.64C1096.32 191.02 1097.13 191.4 1097.95 191.77ZM1048.99 192.94C1049.3 193.31 1049.61 193.69 1049.91 194.07C1049.61 193.69 1049.3 193.31 1048.99 192.94ZM1055.07 192.94C1055.39 193.29 1055.7 193.64 1056.02 193.99C1055.7 193.64 1055.39 193.29 1055.07 192.94ZM1100.25 192.89C1102.48 193.85 1104.7 194.82 1106.93 195.78C1106.62 196.35 1106.31 196.93 1106 197.5C1108.39 198.8 1107.64 199.64 1106.66 202.16C1104.63 200.8 1102.61 199.44 1100.58 198.09C1100.72 197.22 1100.86 196.36 1101 195.5C1100.75 194.63 1100.5 193.76 1100.25 192.89ZM1049.91 194.07C1049.99 194.38 1050.06 194.69 1050.14 195C1050.06 194.69 1049.99 194.38 1049.91 194.07ZM1056.02 193.99C1056.35 194.32 1056.68 194.64 1057.02 194.97C1056.68 194.64 1056.35 194.32 1056.02 193.99ZM1057.02 194.97C1057.37 195.28 1057.73 195.6 1058.09 195.91C1057.73 195.6 1057.37 195.28 1057.02 194.97ZM1058.09 195.91C1058.72 196.26 1059.36 196.61 1059.99 196.96C1059.36 196.61 1058.72 196.26 1058.09 195.91ZM1052.03 197.15C1052.52 197.21 1053.01 197.27 1053.5 197.33C1053.68 197.88 1053.87 198.42 1054.05 198.97C1053.38 198.36 1052.71 197.75 1052.03 197.15ZM1054.05 198.97C1054.37 199.28 1054.68 199.59 1055 199.91C1054.68 199.59 1054.37 199.28 1054.05 198.97ZM1074.01 201.5C1072.98 201.5 1071.94 201.5 1070.91 201.5C1071.44 202.09 1071.97 202.68 1072.5 203.26C1073 202.68 1073.51 202.09 1074.01 201.5ZM1121 201.14C1123.96 202.5 1126.71 203.65 1128.09 206.72C1126.23 206.48 1124.36 206.24 1122.5 206C1121.5 207.4 1120.5 208.8 1119.5 210.2C1118.5 209.13 1117.5 208.07 1116.5 207C1116 207.59 1115.5 208.18 1115 208.77C1114.32 208.2 1113.64 207.63 1112.95 207.07C1113.64 206.88 1114.32 206.69 1115 206.5C1114.55 204.96 1114.41 205.46 1115.5 204C1117.33 203.83 1119.17 203.67 1121 203.5C1121 202.71 1121 201.92 1121 201.14ZM1109.14 205.16C1109.93 205.11 1110.71 205.05 1111.5 205C1111.98 205.69 1112.47 206.38 1112.95 207.07C1111.68 206.43 1110.41 205.8 1109.14 205.16ZM1123.72 212.1C1122.51 211.81 1121.3 211.52 1120.08 211.22C1120 210.98 1119.91 210.74 1119.82 210.5C1122.33 210.52 1122.65 209.87 1123.72 212.1ZM485.21 215.98C486.4 217.15 487.59 218.33 488.78 219.5C487.46 218.69 486.13 217.88 484.81 217.07C484.94 216.71 485.08 216.34 485.21 215.98ZM1136.11 219.07C1135.41 218.65 1134.72 218.22 1134.02 217.8C1134.85 217.2 1135.67 216.6 1136.5 216C1136.37 217.02 1136.24 218.05 1136.11 219.07ZM1140.99 222.05C1139.7 221.31 1138.41 220.56 1137.12 219.82C1137.75 219.71 1138.37 219.61 1139 219.5C1139.17 219 1139.33 218.5 1139.5 218C1140 219.35 1140.49 220.7 1140.99 222.05ZM1128.93 228.57C1129.29 228.88 1129.64 229.19 1130 229.5C1130.52 232.12 1131.01 233.51 1132.62 235.5C1132.65 236 1132.68 236.5 1132.71 237C1132.76 237.67 1132.81 238.33 1132.86 239C1132.07 239 1131.29 239 1130.5 239C1128.91 238.17 1127.31 237.33 1125.72 236.5C1125.81 236.27 1125.91 236.04 1126 235.81C1126.98 233.4 1127.95 230.98 1128.93 228.57ZM286.66 235.89C286.96 237.74 287.88 239.68 288 241.5C288.11 243.2 287.19 244.82 287.07 246.5C286.84 249.73 287.79 251.93 286.67 255.08C286.66 248.68 286.66 242.29 286.66 235.89ZM1120.98 237.75C1121.66 238 1122.33 238.25 1123 238.5C1122.17 239 1121.33 239.5 1120.5 240C1120 239.97 1119.5 239.93 1119 239.9C1119.66 239.18 1120.32 238.47 1120.98 237.75ZM1133.14 239.46C1135.46 242.03 1135.65 244.19 1134.18 247.22C1133.96 246.69 1133.73 246.15 1133.5 245.62C1132.83 247.46 1132.17 249.3 1131.5 251.14C1132.03 251.08 1132.56 251.01 1133.09 250.94C1132.75 252.06 1132.4 253.18 1132.06 254.31C1130.7 254.37 1129.35 254.44 1128 254.5C1129.71 249.49 1131.43 244.47 1133.14 239.46ZM1117.95 241.71C1118.47 241.81 1118.98 241.9 1119.5 242C1119.87 244.74 1118.78 245.56 1117.5 248C1117.08 247.33 1116.67 246.67 1116.25 246C1116.82 244.57 1117.39 243.14 1117.95 241.71ZM1114.99 248.74C1115.49 248.82 1116 248.91 1116.5 249C1116.5 250 1116.5 251 1116.5 252C1115.95 251.72 1115.4 251.44 1114.85 251.15C1114.9 250.35 1114.94 249.54 1114.99 248.74ZM1130.36 257.07C1129.4 257.45 1128.45 257.83 1127.5 258.21C1127.38 258.7 1127.26 259.2 1127.14 259.69C1124.92 259.12 1122.71 258.56 1120.5 258C1120.68 260.42 1119.18 259.3 1117.7 260.69C1116.91 261.42 1116.36 264.52 1116 265.5C1115.04 265 1114.08 264.5 1113.12 264C1114.1 260.7 1115.07 257.4 1116.04 254.1C1116.53 254.73 1117.01 255.37 1117.5 256C1119.84 254.86 1121.53 255.5 1124 255.5C1121.17 252.63 1124.27 251.86 1126.28 253.22C1127.86 254.29 1125.69 255.81 1125 256.5C1127.18 256.5 1128.49 256.03 1130.36 257.07ZM1237.15 256.96C1239.11 257.94 1241.07 258.93 1243.04 259.91C1240.55 259.64 1238.62 259.09 1237.15 256.96ZM1126.96 263C1126.06 266.64 1125.17 270.29 1124.28 273.93C1122.61 273.4 1123 276.47 1119 274.5C1121.25 270.91 1121.69 268.04 1122.5 264C1124.13 263.46 1125.35 262.24 1126.96 263ZM1112.91 264.52C1113.27 265.85 1113.64 267.17 1114 268.5C1113.06 268.33 1112.12 268.17 1111.17 268C1111.75 266.84 1112.33 265.68 1112.91 264.52ZM1109.79 271.12C1110.03 270.98 1110.26 270.84 1110.5 270.7C1110.17 271.8 1109.83 272.9 1109.5 274C1109.01 273.97 1108.52 273.95 1108.02 273.92C1108.61 272.99 1109.2 272.05 1109.79 271.12ZM1272.1 274.97C1274.08 276.26 1276.05 277.55 1278.02 278.84C1277.18 278.9 1276.34 278.95 1275.5 279C1274.37 277.66 1273.24 276.31 1272.1 274.97ZM1124.29 276.06C1124.53 278.7 1124.76 281.35 1125 284C1124.57 285.28 1123.75 288.2 1122.81 289.25C1122.2 289.94 1122.1 289.08 1121.53 289.41C1121.07 289.67 1120.99 290.49 1120.47 290.59C1117.28 291.22 1115.49 287.79 1115 285.5C1116.86 283.64 1120.6 280.35 1123 280.5C1123.43 279.02 1123.86 277.54 1124.29 276.06ZM1098.05 292.07C1097.67 291.78 1097.3 291.49 1096.92 291.2C1097.45 290.32 1097.97 289.44 1098.5 288.56C1098.76 290.56 1099.1 290.45 1098.05 292.07ZM1125.1 291C1124.84 293.04 1124.59 295.07 1124.34 297.11C1124.22 295.24 1124.11 293.37 1124 291.5C1124.37 291.33 1124.73 291.17 1125.1 291ZM1098 293C1098.17 293.76 1098.33 294.51 1098.5 295.27C1098.89 294.48 1099.28 293.69 1099.68 292.89C1099.45 294.1 1099.23 295.3 1099 296.5C1099.83 296.33 1100.67 296.17 1101.5 296C1101.67 297.17 1101.83 298.33 1102 299.5C1100.83 299.33 1099.67 299.17 1098.5 299C1097.96 299.58 1097.42 300.16 1096.89 300.74C1097.09 298.83 1097.3 296.92 1097.5 295C1095.9 298.82 1090.61 308.53 1091.73 312.01C1091.99 311.98 1092.24 311.95 1092.5 311.93C1092 313.45 1091.5 314.98 1091 316.5C1090.65 316.67 1090.3 316.83 1089.95 317C1089.8 316.22 1089.65 315.43 1089.5 314.65C1088.31 317.6 1087.12 320.55 1085.92 323.5C1086.22 323.71 1086.51 323.93 1086.8 324.14C1086.83 329.1 1084.5 333.65 1080.7 336.5C1081.61 339.36 1080.95 337.95 1081.22 340.34C1081.57 343.44 1083.98 342.08 1083.5 346C1080.99 346.67 1078.49 347.33 1075.98 348C1076.82 346.28 1077.66 344.56 1078.5 342.83C1078.18 341.31 1077.04 341.35 1076.68 339.54C1076.16 337.03 1079.73 329.83 1080.7 327.23C1084.62 316.79 1088.6 303.31 1094.84 294.13C1095.39 294.42 1095.95 294.71 1096.5 295C1097 294.33 1097.5 293.67 1098 293ZM1119.5 293C1120.87 294.42 1119.78 292.03 1120.78 293.72C1122.55 296.7 1117.97 302.76 1115.5 304C1114.5 299 1116.45 296.76 1119.5 293ZM550.91 294C551.28 294.17 551.64 294.33 552 294.5C551.88 297.05 551.77 299.61 551.65 302.16C551.41 299.44 551.16 296.72 550.91 294ZM553.5 299C553.5 301.33 553.5 303.67 553.5 306C553.5 303.67 553.5 301.33 553.5 299ZM1124.02 299C1123.38 305.54 1120.63 311.91 1118.57 318.13C1116.19 325.34 1114.19 333.47 1110.65 340.21C1109.69 342.04 1108.3 342.18 1107.02 343.53C1106.09 344.53 1105.69 346.26 1105.14 347.48C1100.96 346.74 1099.29 345.89 1099 341.5C1100.6 339.9 1102.41 339.74 1103.97 338.47C1104.97 337.66 1104.63 335.78 1105.69 335.25C1106.66 334.76 1106.05 335.62 1107 335.5C1106.83 337.67 1106.67 339.83 1106.5 342C1108.99 339.28 1107.19 335.94 1109.22 333.69C1110.24 332.56 1111.47 332.69 1112.5 331.44C1111.96 326.38 1110.61 329.61 1113 323.5C1106.32 324.74 1107.25 317.37 1111.03 315.53C1112.57 314.78 1114.43 315.5 1116 315.5C1116.72 311.88 1120.14 310.15 1119 306.5C1122.44 304.7 1121.68 301.68 1124.02 299ZM316.5 321.6C317.56 323.23 318.61 324.87 319.67 326.5C316.79 325.59 316.5 324.13 316.5 321.6ZM1075.67 348.87C1076.21 350.08 1076.76 351.29 1077.3 352.5C1077.25 352.43 1076.43 352.88 1076.52 352.28C1077.1 348.68 1081.98 352.48 1083 353.5C1081.43 355.44 1080.92 356.03 1078.5 355C1077.91 355.35 1077.33 355.69 1076.74 356.04C1075.32 353.71 1074.83 351.48 1075.67 348.87ZM63.87 350.46C64.13 350.89 64.84 350.96 65 351.43C65.79 353.64 62.12 365.18 61.55 368.19C60.15 375.73 58.16 383.14 57.49 390.8C57.15 394.69 57.49 398.59 57.1 402.5C56.76 405.95 55.5 409.02 55.39 412.5C55.25 416.62 54.74 421.42 55.24 425.49C55.37 426.55 55.96 427.52 56.04 428.56C56.07 429.06 55.37 431.14 55.58 431.46C55.92 431.99 59.44 432.28 60.25 432.5C59.67 433.51 59.08 434.52 58.5 435.53C61.01 435.86 63.53 436.18 66.04 436.5C67.19 438.77 68.35 441.05 69.5 443.32C71.53 443.38 73.57 443.44 75.6 443.5C76.57 444.7 77.53 445.89 78.5 447.09C80.42 446.89 82.35 446.7 84.27 446.5C83.27 445.5 82.27 444.5 81.27 443.5C87.69 442.25 83.67 440.24 88.5 439.34C90.52 441.43 88.81 440.97 89.42 442.45C89.76 443.27 91.8 444.83 92.5 445.73C93.83 444.88 95.17 444.03 96.5 443.18C98.08 449.84 98.69 447.31 105.3 449.5C104.86 449.73 101.6 451.14 101.49 451.5C101.4 451.82 103.21 452.74 103.4 453.09C105.13 456.12 101.09 456.07 99.15 456.5C102.97 457.07 107.55 455.67 111.19 457.38C112.05 457.79 112.28 458.99 113.14 459.44C113.89 459.83 114.42 459.11 115.19 459.41C115.82 459.66 115.77 460.52 116.51 460.76C116.72 460.83 119.19 460.7 119.43 460.62C119.78 460.5 119.79 459.51 120.23 459.6C120.76 459.71 120.34 460.24 120.62 460.5C120.06 462.86 119.42 462.62 117 463.5C123.55 465.82 118.1 465.31 120.92 469.42C122.42 471.6 123.5 471.05 123.5 474C125.17 473.68 125.11 473.97 126.5 475.35C128.71 466.83 130.18 472.84 136.5 467.32C136.53 470.39 138.39 471.11 135.5 473.79C132.98 473.25 132.28 472.03 129.5 471.96C129.58 473.19 128.58 472.11 129.11 473.42C129.56 474.52 131.02 473.87 131.42 474.61C131.52 474.8 130.44 475.18 130.44 475.5C130.42 476.87 131.86 475.65 130.5 478C133.51 480 134.91 482.52 131.65 485.5C133.34 488.01 135.32 493.05 138.5 489.43C139.12 493.83 143.74 494.6 145.5 498.59C147.83 498.68 150.17 498.77 152.5 498.87C154.35 501.63 159.5 512.2 163.12 511.15C168.6 517.42 173.64 524.05 179.63 529.87C199.13 548.82 228.84 570.92 257.5 567.97C268.18 566.87 278.58 562.83 288.57 559.13C310.99 550.84 339.95 537.92 363.96 538.86C369.34 538.9 374.71 538.95 380.09 539C377.31 540.9 373.9 540.07 370.53 540.36C363.92 540.91 356.55 541.13 350.09 542.55C345.83 543.49 341.72 545.09 337.48 546.01C333.35 546.92 328.88 547.11 324.88 548.48C319.8 550.22 314.88 552.66 309.8 554.47C305.47 556.02 301.73 560.15 297.3 561.16C296.07 561.43 294.84 561.11 293.59 561.22C290.71 561.49 287.88 563.24 285.35 564.5C285.62 564.92 285.34 565.6 285.69 565.96C286.5 566.79 290.83 569.11 292.5 570.63C293.29 570.62 299.09 570.75 299.3 570.69C299.95 570.51 300.81 569.52 302.5 569.07C305.86 569.34 307.07 570.9 310.5 569.5C310.62 566.32 309.54 565.98 311.5 564.12C315.22 563.81 314.58 564.49 317.5 566.5C314.53 568.19 313.81 568.75 312.5 571.81C316.61 573.15 318.92 571.49 322.5 569.5C326.02 571.55 329.05 569.15 332.81 568.34C334.98 567.87 337.49 568.75 339.53 568.66C341.44 568.57 343.8 567.1 345.64 567.08C346.76 567.06 347.4 567.9 348.53 567.97C349.8 568.05 350.51 567.38 351.62 567C355.24 565.76 355.65 565.32 356.5 561.5C359.25 562.07 360.16 562.04 362.5 560.5C367.83 561.5 373.17 562.5 378.5 563.5C380.17 562.46 381.83 561.42 383.5 560.38C384.5 561.09 385.5 561.79 386.5 562.5C388.17 561.83 389.83 561.17 391.5 560.5C391.8 560.92 393.2 563.48 393.56 563.58C394.35 563.81 395.21 562.16 396.5 562.5C396.98 556.43 399.09 552.99 405.26 555.5C405.46 555.37 404.74 553.84 405.62 552.88C406.42 552 408.97 552.2 410.05 551.55C412.1 550.33 413.38 547.89 415.45 546.5C414.3 545.32 413.15 544.15 412 542.97C418.02 544.62 424.05 546.27 430.07 547.92C430.55 548.6 431.02 549.28 431.5 549.96C425.7 550.1 420.52 549.71 415.5 552.5C418.08 553.47 417.65 555.19 417.26 557.5C419.44 557.55 427.59 557.36 429.25 556.66C432.04 555.49 433.22 553.56 436.5 553.02C439.7 556.35 438.79 557.86 437.5 561.5C439.5 563.07 441.5 564.63 443.5 566.2C445.5 564.59 448.69 562.96 450.29 560.98C452.04 558.82 451.39 557.17 454.05 555.85C460.15 556.7 473.88 561.78 478.28 566.21C479.79 567.73 480.27 569.86 481.5 571.56C483.8 566.55 487.22 562.14 489.58 557.13C491.92 552.19 493.39 546.81 495.7 541.96C496.83 542.61 495.5 541.99 498 540.5C497.83 543 497.67 545.5 497.5 548C498.8 545.4 498.63 543.45 499.19 540.69C499.75 537.87 501.27 535.14 501.81 532.31C502.17 530.45 501.83 528.55 502.19 526.69C502.59 524.62 503.64 522.57 503.97 520.47C504.72 515.68 503.83 510.27 504.22 505.66C504.28 504.89 504.92 504.3 504.97 503.47C505.12 501.05 504.02 499.52 504.5 497C511.36 499.04 508.7 506.19 508.03 511.53C507.79 513.49 508.74 514.73 508.97 516.53C509.21 518.49 508.15 519.73 508.03 521.53C507.93 523.05 508.94 524.08 508.94 525.5C508.94 526.57 508.2 527.47 508.03 528.53C507.38 532.66 509.14 536.22 506 539.5C506.73 541.03 507.93 543.56 507.78 545.34C507.4 549.87 504.2 549.25 502.5 546C502.03 548.34 501.29 551.92 502.22 554.28C502.48 554.94 503.38 554.89 503.59 555.53C503.65 555.71 503.22 556.58 503.22 556.66C503.19 557.44 503.78 557.96 503.78 558.66C503.78 560.94 502.84 561.21 504.86 563C499.67 580.41 477.99 602.04 464.29 613.82C459.41 618.01 452.17 625.28 445.45 625.5C442.76 621.37 446.19 618.76 448.98 615.48C454.75 608.7 460.66 601.88 465.65 594.5C461.96 593.7 458.29 594.74 454.5 594.83C449.59 594.95 444.38 594.36 439.5 593.89C418.93 591.92 398.27 587.76 377.5 589.97C363.05 591.51 353.08 602.04 362.34 616.21C372.55 631.85 395.18 638.22 412.39 641.27C427.51 643.95 443.28 644.86 458.43 641.73C471.33 639.07 482.5 632.57 493.96 626.47C513.59 616.03 532.65 603.35 550.34 589.89C559.59 582.84 568.25 574.51 577.82 567.99C579.05 567.99 580.27 568 581.5 568C582.2 566.67 583.21 564.36 584.69 563.71C585.17 563.5 585.83 563.98 586.28 563.7C588.2 562.51 587.15 561.32 589.5 562C591.5 559.33 592.51 553.44 597.5 555C597.83 553.3 598.17 551.61 598.5 549.91C600.33 551.44 602.17 552.97 604 554.5C604 555.83 604 557.17 604 558.5C606.64 557.62 606.01 557.4 608.03 559.47C608.45 559.89 609.38 559.9 609.59 560.53C609.86 561.3 608.78 562.24 609.19 563.25C609.62 564.32 610.09 562.36 610.5 562.44C610.98 562.53 610.8 563.31 611 563.5C609.63 566.25 609.71 568.72 607 570.5C607.32 571.14 608.75 573.02 608.78 573.66C608.84 574.96 607.69 574.74 607.22 575.72C606.1 578.03 606.1 580.68 604.47 582.97C602.38 585.89 600.06 586.21 600.49 590.17C598.7 592.09 596.91 594.02 595.12 595.94C594.58 595.63 594.04 595.31 593.5 595C592.67 595.83 591.83 596.67 591 597.5C591.33 598.04 591.66 598.59 591.98 599.13C589.81 602.25 586.82 604.9 584.26 607.75C575.9 617.04 567.03 625.86 558.03 634.52C514.14 676.72 462.73 705.33 402.53 716.19C388.64 718.7 374.15 721.06 360 720.91C358.33 720.94 356.67 720.98 355 721.01C349.67 721.01 344.33 721.02 339 721.02C337.33 720.98 335.67 720.94 334 720.9C320.45 720.7 306.77 718.55 293.44 716.27C248.1 708.55 204.75 690.17 167.87 662.6C154.9 652.9 136.63 639.05 127.06 626.11C127.37 625.57 127.69 625.04 128 624.5C127.17 623.67 126.33 622.83 125.5 622C124.95 622.18 124.39 622.36 123.84 622.55C117.19 615.97 111.41 608.19 105.92 600.63C85.2 572.12 72.17 543.04 62.33 509.28C57.66 493.26 52.87 473.68 52.94 457C53.11 456.83 53.27 456.67 53.44 456.5C53.46 455 53.48 453.5 53.5 452C53.22 453.04 52.94 454.07 52.66 455.11C52.47 452.07 52.27 449.04 52.08 446C52.72 445.5 53.36 445 54 444.5C54 439.13 55.18 430.54 53.97 425.53C53.68 424.32 52.76 423.65 52.43 422.47C52.14 421.41 52.28 419.99 52.06 419C52.26 415.64 52.46 412.28 52.66 408.92C52.94 409.61 53.22 410.31 53.5 411C54 409.83 54.5 408.67 55 407.5C54.66 404.33 54.33 401.17 53.99 398C54.08 385.78 59.14 361.83 63.87 350.46ZM1102.88 355C1102.61 355.75 1102.33 356.5 1102.06 357.25C1101.54 355.83 1101.02 354.42 1100.5 353C1101.29 353.67 1102.09 354.33 1102.88 355ZM1084 361.99C1082.02 360.68 1080.03 359.37 1078.05 358.07C1078.53 357.71 1079.02 357.36 1079.5 357C1081 358.66 1082.5 360.32 1084 361.99ZM1101.77 358C1100.57 359.02 1099.37 360.04 1098.17 361.06C1098.94 360.04 1099.72 359.02 1100.5 358C1100.92 358 1101.34 358 1101.77 358ZM1084.95 362.3C1088.32 362.3 1091.68 362.3 1095.05 362.3C1091.84 363.47 1088.13 363.61 1084.95 362.3ZM53.66 399.88C53.77 402.09 53.89 404.29 54 406.5C53.65 406.67 53.3 406.83 52.94 407C53.18 404.63 53.42 402.26 53.66 399.88ZM501.01 428C501.03 431.37 501.05 434.74 501.07 438.12C500.71 437.91 500.36 437.71 500 437.5C500 434.5 500 431.5 500 428.5C500.34 428.33 500.67 428.17 501.01 428ZM51.67 429.11C52.12 429.57 52.56 430.04 53 430.5C53 432.5 53 434.5 53 436.5C52.61 436.67 52.23 436.83 51.84 437C51.78 434.37 51.73 431.74 51.67 429.11ZM501.07 438.12C501.38 439.74 501.68 441.37 501.99 443C501.66 442.83 501.33 442.67 501 442.5C501.02 441.04 501.04 439.58 501.07 438.12ZM502.3 444.1C502.57 445.73 502.84 447.37 503.11 449C502.74 448.83 502.37 448.67 502 448.5C502.1 447.03 502.2 445.57 502.3 444.1ZM508.33 476.9C508.59 478.93 508.84 480.96 509.1 482.99C508.73 482.83 508.37 482.66 508 482.5C508.11 480.63 508.22 478.76 508.33 476.9ZM496.35 539C497.31 534.72 498.27 530.43 499.24 526.15C499.53 523.77 499.82 521.38 500.11 519C500.46 509 500.8 499 501.15 489C501.59 485.97 501.1 484.81 502.5 482C504.28 490.88 503.46 507.43 502.03 516.53C501.68 518.8 502.32 521.2 501.97 523.47C501.24 528.1 500.66 533.04 499 537.5C497.87 538.62 498.2 538.79 496.35 539ZM509.1 482.99C509.43 484.99 509.76 487 510.09 489C509.72 488.83 509.36 488.67 509 488.5C509.03 486.66 509.06 484.83 509.1 482.99ZM606 487.93C608.02 488.13 608.72 488.21 610.04 489.79C609.53 490.19 609.01 490.6 608.5 491C607.33 490.5 606.17 490 605 489.5C605.33 488.98 605.67 488.45 606 487.93ZM510.16 489.38C510.43 491.58 510.71 493.79 510.98 496C510.66 495.83 510.33 495.67 510 495.5C509.67 493.83 509.33 492.17 509 490.5C509.39 490.13 509.77 489.75 510.16 489.38ZM607 491.6C605.17 491.6 603.33 491.6 601.5 491.6C604.43 488.67 602.57 490 607 491.6ZM611.11 491.84C612.76 495.31 612.1 499.61 611.71 503.5C611.45 503.67 611.18 503.84 610.92 504.01C610.59 503.51 610.26 503 609.93 502.5C611.18 498.99 610.89 495.56 611.11 491.84ZM511.16 498.82C511.4 500.55 511.64 502.27 511.88 504C511.26 502.5 510.63 501 510 499.5C510.39 499.27 510.77 499.05 511.16 498.82ZM511.99 507C513 514.64 513.35 522.38 512.04 530C511.69 529.5 511.35 529 511 528.5C511.82 524.38 512.64 519.84 511.97 515.53C511.47 512.34 510.19 509.87 511.99 507ZM431.12 530C432.76 531.61 432.85 532.69 432.91 535.03C432.31 533.35 431.71 531.68 431.12 530ZM511.88 534C511.69 535.62 511.5 537.24 511.3 538.86C510.87 538.41 510.43 537.95 510 537.5C510.17 536.33 510.33 535.17 510.5 534C510.96 534 511.42 534 511.88 534ZM432.91 535.03C435.08 536.48 434.87 537.87 435 540.5C434.78 540.67 434.56 540.83 434.34 541C433.86 539.01 433.38 537.02 432.91 535.03ZM593 541C592.09 542.36 591.17 543.71 590.26 545.07C590.08 544.21 589.89 543.36 589.71 542.5C590.81 542 591.9 541.5 593 541ZM555.88 552.49C556.6 552.83 557.33 553.16 558.05 553.5C555.87 557.43 553.68 561.37 551.5 565.3C550.68 564.51 549.86 563.73 549.04 562.94C551.32 559.46 553.6 555.98 555.88 552.49ZM506.8 558C506.28 559.31 505.76 560.63 505.24 561.94C505.33 560.63 505.41 559.31 505.5 558C505.93 558 506.36 558 506.8 558Z" fill="#e65d02" fill-rule="evenodd" stroke="#e65d02" stroke-width="0.25" stroke-linejoin="round"/>
<path d="M704.5 371.3C712.68 366.1 719.71 357.93 726.95 351.45C739.26 340.42 751.64 329.48 763.97 318.47C771.01 312.19 782.23 301.04 790.73 312.76C799.07 324.25 783.11 332.89 775.65 339.13C752.19 358.73 728.36 378.45 706.16 399.5C707.29 400.93 708.77 402.17 709.68 403.8C712.44 408.76 714.1 423.9 715.39 430.24C719.44 450.19 724.64 471.05 734.49 489.02C739.22 497.64 745.53 506.23 754.12 511.38C759.56 514.64 767.42 513.87 771.65 518.83C776.28 524.25 775.31 533.83 768.9 537.41C758.52 543.2 743.92 535.06 735.36 529.09C709.53 511.1 701.24 476.48 693.57 447.91C691.84 441.48 690.23 435.03 688.94 428.5C688.3 425.27 687.94 420.52 685.74 418.5C683.07 422.24 681.48 426.8 679.42 430.91C673.69 442.36 668.65 454.14 663.38 465.82C661.43 470.14 660.19 475.19 657.72 479.23C653.85 485.6 642.84 485.8 638.18 480.3C633.44 474.69 636.27 469.1 638.89 463.42C642.29 456.06 645.3 448.53 648.57 441.12C664.95 404 682.5 367.17 697.58 329.5C690.07 328.1 681.43 331.57 674.24 333.64C642.26 342.88 624.62 369.11 621.94 401.5C621.08 411.82 622.35 422.17 622.05 432.5C621.87 438.94 621.34 445.54 615.5 449.39C605.49 443.26 600.2 420.45 599.37 409.49C596.08 365.94 624.42 325.5 664.75 310.29C679.94 304.56 696.31 302.01 712.5 302.13C718.99 302.17 728.83 303.38 729.6 311.68C730.1 317.18 725.2 323.66 723.15 328.63C718.72 339.37 713.62 349.83 709.06 360.51C707.55 364.06 705.35 367.57 704.5 371.3ZM1247.97 366.5C1250.99 367.11 1255.62 366.16 1258.04 368.45C1263.42 373.56 1257.11 383.81 1251.82 386.35C1247.17 388.57 1241.73 387.46 1236.85 388.5C1230.8 400.92 1225.5 413.68 1219.66 426.2C1215.65 434.79 1211.26 443.7 1208.25 452.69C1206.41 458.2 1208.9 462.5 1207.46 466.94C1205.7 472.4 1198.66 473.87 1193.8 472.63C1182.62 469.77 1183.18 457.33 1186.25 448.69C1190.88 435.66 1197.02 422.83 1202.67 410.2C1205.78 403.25 1210.61 395.69 1211.82 388.24C1209.38 388.24 1206.94 388.24 1204.5 388.24C1200.46 380.98 1202.25 370.59 1211.25 367.71C1215.01 366.51 1219.58 367.43 1223.5 366.76C1228.67 355.98 1234.27 345.37 1238.64 334.23C1240.3 330 1238.63 325.34 1240.77 321.27C1243.11 316.82 1248.78 314.77 1253.5 315.89C1260.76 317.62 1262.41 325.04 1261.32 331.56C1259.26 343.9 1252.78 355.11 1247.97 366.5ZM1160.78 453.5C1165.75 453.67 1168.5 449.51 1173.21 448.58C1181.1 447.02 1184.94 456.05 1181.64 462.19C1179.88 465.46 1176.2 467.71 1173.13 469.6C1161.9 476.53 1145.16 478.06 1138.5 464.4C1134.25 465.85 1130.53 469.75 1126.39 471.91C1117.5 476.57 1106.36 477.52 1096.81 474.59C1080.53 469.6 1075.61 452.8 1075.86 437.5C1076.29 410.78 1093.69 380.38 1119.81 371.37C1127.04 368.87 1134.84 367.51 1142.5 367.96C1148.23 368.3 1154.17 369.58 1159.34 372.15C1165.07 375 1165.73 377.73 1169.6 381.88C1172.1 384.54 1175.76 384.04 1177.41 388.08C1182.54 400.63 1171.24 418.45 1166.56 430.08C1164.3 435.68 1157.22 448.28 1160.78 453.5ZM1263.71 428.5C1259.64 446.26 1276.08 454.83 1291.37 449.81C1297.61 447.76 1302.03 442.1 1308.39 440.69C1315.92 439.03 1322.38 446.94 1320.5 454.02C1318.59 461.15 1307.64 465.46 1301.52 468.02C1279.86 477.08 1251.84 472.61 1243.25 448.33C1233.56 420.96 1251.33 386.57 1276.12 373.61C1291.92 365.35 1316.77 364.35 1328.72 379.75C1332 383.98 1334.25 389.19 1334.94 394.5C1335.37 397.85 1335.32 401.16 1334.84 404.5C1331.38 428.76 1296.16 429.66 1277.5 428.94C1272.92 428.76 1268.27 428.19 1263.71 428.5ZM1062.5 381.36C1073.53 380.7 1074.08 385.69 1074.06 395.5C1074.04 406.57 1068.79 418.01 1064.58 428.11C1060.45 438.05 1057.2 448.38 1052.61 458.14C1046.16 471.82 1038.02 484.99 1030.69 498.22C1024.02 510.28 1017.61 522.63 1008.89 533.38C997.76 547.11 982.37 559.42 963.5 557.25C948.98 555.58 939.19 544.88 934.93 531.52C932.38 523.53 932.7 513.71 941.62 510.15C943.24 509.5 944.76 509.24 946.5 509.3C962.46 509.78 952.44 529 965.64 532.82C973 534.95 980.57 530.09 985.51 524.99C996.13 514.01 1006.39 494.72 1011.97 480.5C1003.01 479.96 995.04 481.34 986.64 476.86C969.23 467.56 967.36 445.89 970.94 428.5C977.93 394.59 1007.49 363.9 1044.56 371.72C1051.9 373.27 1057.01 376.44 1062.5 381.36ZM834.02 458.5C842.6 459.33 846.34 447.9 855.5 457.07C859.96 450.44 861.49 441.26 864.33 433.78C869.39 420.46 875.1 407.34 880.68 394.23C882.78 389.29 884.22 383.87 886.58 379.08C890.86 370.41 902.62 372.91 907.5 379.24C914.19 376.31 920.05 373.39 927.5 372.77C931.51 372.43 935.49 372.38 939.47 373.12C960.34 377.04 966.73 397.6 964.85 416.5C961.55 449.71 935.33 481.4 900.5 481.11C890.36 481.03 882.16 478.12 874.5 471.52C871.12 476.57 869.51 482.95 867.14 488.57C862.18 500.33 857.33 512.14 852.46 523.94C849.33 531.54 846.13 541.19 835.45 538.2C827.85 536.07 825.84 528.79 828.43 521.91C833.07 509.63 838.67 497.5 843.86 485.43C845.44 481.76 847.45 478.05 848.5 474.22C844.66 475.17 841.28 477.67 837.4 478.83C826.64 482.07 817.3 479.23 811.5 469.67C807.72 471.31 804.66 474.44 800.92 476.42C793.43 480.4 785.06 482.35 776.55 481.64C755.4 479.87 746.09 459.77 747.36 440.53C749.09 414.34 767.25 384.27 793 375.5C800.18 373.06 807.91 371.79 815.5 372.26C821.47 372.63 827.38 374.03 832.73 376.73C835.97 378.36 838.96 380.4 841.15 383.33C841.94 384.38 842.57 386.09 843.53 386.96C845.73 388.98 848.43 388.29 850.18 391.32C856.91 402.93 844.57 424.16 839.88 435.38C837.43 441.23 830.94 452.78 834.02 458.5ZM1270.24 408.5C1278.03 410.71 1296.49 410.04 1304.43 407.8C1309.57 406.34 1315.03 403.26 1313.46 397.03C1311.84 390.58 1304.38 388.35 1298.52 388.43C1285.56 388.62 1276.42 398.22 1270.24 408.5ZM1132.73 389.4C1114.62 393.08 1102.23 412.5 1098.79 429.45C1097.12 437.67 1097.06 450.37 1106.44 454.12C1112.9 456.7 1120.77 453.46 1125.89 449.42C1136.67 440.9 1142.93 428.1 1148.36 415.81C1150.25 411.54 1153.5 406.21 1153.68 401.48C1154.12 390.39 1141.2 387.67 1132.73 389.4ZM1027.78 392.42C1008.95 395.86 995.08 417.7 993.06 435.5C992.21 442.89 992.32 454.42 1000.78 457.68C1021.18 465.52 1037.76 434.96 1043.55 420.09C1045.2 415.85 1048.28 411.03 1048.65 406.44C1049.6 394.54 1037.29 390.68 1027.78 392.42ZM809.71 393.43C789.61 394.99 775.51 416.44 771.66 434.31C769.93 442.31 769.4 455.09 778.32 459.2C785.18 462.37 793.01 459.41 798.63 455.08C809.71 446.52 816.08 433.42 821.36 420.8C823.15 416.54 826.85 411.17 826.98 406.5C827.22 397.32 817.6 392.82 809.71 393.43ZM923.81 393.41C904.63 396.97 894.95 416.05 888.88 432.44C885.53 441.48 882.68 452.35 893.69 457.78C900.8 461.29 909.43 459.19 915.98 455.48C930.61 447.2 940.14 431.09 941.74 414.48C942.92 402.29 938.21 390.74 923.81 393.41ZM897.11 586C897.41 586.17 897.7 586.33 898 586.5C898 590.5 898 594.5 898 598.5C897.7 598.67 897.4 598.83 897.1 599C897.11 594.67 897.11 590.33 897.11 586ZM808 590.89C806.33 590.87 804.67 590.85 803 590.83C803.17 590.56 803.33 590.28 803.5 590C804.83 590 806.17 590 807.5 590C807.67 590.3 807.83 590.6 808 590.89ZM897.11 612C897.41 612.17 897.7 612.33 898 612.5C898 615.17 898 617.83 898 620.5C897.68 620.67 897.36 620.83 897.04 621C897.06 618 897.09 615 897.11 612ZM919 626.09C921.33 626.1 923.67 626.11 926 626.12C925.83 626.41 925.67 626.71 925.5 627C923.5 627 921.5 627 919.5 627C919.33 626.7 919.17 626.39 919 626.09Z" fill="#072556" fill-rule="evenodd" stroke="#072556" stroke-width="0.25" stroke-linejoin="round"/>
<path d="M163.12 511.15C159.5 512.2 154.35 501.63 152.5 498.87C150.17 498.77 147.83 498.68 145.5 498.59C143.74 494.6 139.12 493.83 138.5 489.43C135.32 493.05 133.34 488.01 131.65 485.5C134.91 482.52 133.51 480 130.5 478C131.86 475.65 130.42 476.87 130.44 475.5C130.44 475.18 131.52 474.8 131.42 474.61C131.02 473.87 129.56 474.52 129.11 473.42C128.58 472.11 129.58 473.19 129.5 471.96C132.28 472.03 132.98 473.25 135.5 473.79C138.39 471.11 136.53 470.39 136.5 467.32C130.18 472.84 128.71 466.83 126.5 475.35C125.11 473.97 125.17 473.68 123.5 474C123.5 471.05 122.42 471.6 120.92 469.42C118.1 465.31 123.55 465.82 117 463.5C119.42 462.62 120.06 462.86 120.62 460.5C120.34 460.24 120.76 459.71 120.23 459.6C119.79 459.51 119.78 460.5 119.43 460.62C119.19 460.7 116.72 460.83 116.51 460.76C115.77 460.52 115.82 459.66 115.19 459.41C114.42 459.11 113.89 459.83 113.14 459.44C112.28 458.99 112.05 457.79 111.19 457.38C107.55 455.67 102.97 457.07 99.15 456.5C101.09 456.07 105.13 456.12 103.4 453.09C103.21 452.74 101.4 451.82 101.49 451.5C101.6 451.14 104.86 449.73 105.3 449.5C98.69 447.31 98.08 449.84 96.5 443.18C95.17 444.03 93.83 444.88 92.5 445.73C91.8 444.83 89.76 443.27 89.42 442.45C88.81 440.97 90.52 441.43 88.5 439.34C83.67 440.24 87.69 442.25 81.27 443.5C82.27 444.5 83.27 445.5 84.27 446.5C82.35 446.7 80.42 446.89 78.5 447.09C77.53 445.89 76.57 444.7 75.6 443.5C73.57 443.44 71.53 443.38 69.5 443.32C68.35 441.05 67.19 438.77 66.04 436.5C63.53 436.18 61.01 435.86 58.5 435.53C59.08 434.52 59.67 433.51 60.25 432.5C59.44 432.28 55.92 431.99 55.58 431.46C55.37 431.14 56.07 429.06 56.04 428.56C55.96 427.52 55.37 426.55 55.24 425.49C54.74 421.42 55.25 416.62 55.39 412.5C55.5 409.02 56.76 405.95 57.1 402.5C57.49 398.59 57.15 394.69 57.49 390.8C58.16 383.14 60.15 375.73 61.55 368.19C62.12 365.18 65.79 353.64 65 351.43C64.84 350.96 64.13 350.89 63.87 350.46C65.27 342.3 68.89 334.13 71.84 326.37C81.69 300.44 96.19 278.16 112.36 255.83C117.93 248.14 123.22 240.16 129.49 232.99C180.36 174.9 252 136.84 328.47 126.72C337.43 125.53 346.45 124.14 355.5 123.88C384.9 123.07 414.35 128.17 442.2 137.37C462.76 144.17 482.48 154.5 500.44 166.5C494.4 165.22 488.07 160.78 482.33 158.18C471.66 153.35 460.71 149.31 449.42 146.2C407.42 134.63 362.97 134.43 320.57 144.27C219.13 167.79 142.67 245.51 124.68 348.44C121.39 367.26 120.21 386.43 122.2 405.49C124.81 430.57 131.4 455.17 142.67 477.79C148.56 489.6 156.2 500.03 163.12 511.15ZM1175.03 162.84C1174.67 162.49 1174.31 162.13 1173.96 161.77C1177.35 158.39 1183.02 157 1184.72 151.29C1187.33 142.49 1176.69 136 1176.58 128.5C1177.89 127.72 1179.19 126.94 1180.5 126.16C1185.56 128.8 1194.07 146.02 1190.96 151.4C1188.35 155.9 1182.77 156.71 1178.83 159.29C1177.46 160.19 1176.33 161.78 1175.03 162.84ZM485.21 215.98C485.08 216.34 484.94 216.71 484.81 217.07C480.25 214.84 476.05 210.62 471.88 207.61C463.87 201.82 455.36 196.45 446.59 191.9C436.82 186.82 426.56 182.58 415.98 179.52C411.41 178.19 406.18 177.87 401.9 176.08C401.76 175.72 401.63 175.36 401.5 175C399.65 175.11 397.8 175.22 395.94 175.32C390.3 175.12 384.65 174.92 379 174.72C378.83 174.48 378.67 174.24 378.5 174C377.17 174 375.83 174 374.5 174C374.33 174.3 374.17 174.61 374 174.91C372.67 175.14 371.33 175.36 370 175.59C369.83 175.39 369.67 175.2 369.5 175C367.83 175 366.17 175 364.5 175C363.5 175.33 362.5 175.67 361.5 176C361.37 176.36 361.24 176.72 361.11 177.08C357.79 178.7 354.06 179.66 350.63 181.15C343.95 184.07 337.87 188.12 332.24 192.73C307.5 213.04 296.94 248.28 301.39 279.31C302.76 288.83 305.62 298.36 309.3 307.24C310.32 309.72 315.39 317.49 315.34 319.52C315.32 320.26 314.62 320.84 314.5 321.57C300.12 304.35 286.47 277.92 286.67 255.08C287.79 251.93 286.84 249.73 287.07 246.5C287.19 244.82 288.11 243.2 288 241.5C287.88 239.68 286.96 237.74 286.66 235.89C287.39 210.82 304.22 175.66 328.08 164.81C328.89 164.87 329.69 164.94 330.5 165C331.33 164.5 332.17 164 333 163.5C333 163.07 333 162.65 333 162.22C345.03 156.35 358.31 155.38 371.5 156C404.5 157.54 436.95 173.64 462.1 194.43C469.93 200.91 479.31 207.64 485.21 215.98ZM1067 157.01C1068 156.96 1069 156.92 1070 156.87C1069 156.92 1068 156.96 1067 157.01ZM1080.77 159.21C1081.16 159.46 1081.55 159.72 1081.94 159.98C1081.55 159.72 1081.16 159.46 1080.77 159.21ZM1069 162.02C1068.38 162.06 1067.77 162.1 1067.15 162.14C1067.27 161.96 1067.38 161.78 1067.5 161.6C1068 161.74 1068.5 161.88 1069 162.02ZM1055 162.06C1055.16 161.98 1055.31 161.9 1055.47 161.83C1055.31 161.9 1055.16 161.98 1055 162.06ZM1077.07 163.04C1077.22 162.89 1077.36 162.73 1077.5 162.58C1077.36 162.73 1077.22 162.89 1077.07 163.04ZM1063.17 164.3C1062.47 164.23 1061.77 164.17 1061.07 164.1C1061.21 163.74 1061.36 163.37 1061.5 163C1062.06 163.43 1062.61 163.87 1063.17 164.3ZM1061.07 164.1C1060.71 164.37 1060.36 164.63 1060 164.9C1060.36 164.63 1060.71 164.37 1061.07 164.1ZM1080.65 165.04C1080.43 164.94 1080.22 164.85 1080 164.75C1080.22 164.85 1080.43 164.94 1080.65 165.04ZM1083.53 167.13C1083.35 167.03 1083.18 166.93 1083 166.83C1083.18 166.93 1083.35 167.03 1083.53 167.13ZM1049.01 169.11C1049.15 169.24 1049.3 169.37 1049.44 169.5C1049.3 169.37 1049.15 169.24 1049.01 169.11ZM1091.1 168.9C1091.4 169.25 1091.7 169.6 1092 169.95C1092.23 170.3 1092.47 170.65 1092.7 171C1092.8 171.33 1092.9 171.67 1093 172C1093.06 172.18 1093.11 172.37 1093.16 172.55C1092.73 173.2 1092.3 173.85 1091.88 174.5C1091.08 174.39 1090.29 174.28 1089.5 174.16C1088.67 172.61 1087.83 171.05 1087 169.5C1088.37 169.3 1089.74 169.1 1091.1 168.9ZM1052.03 174.1C1051.99 174.4 1051.95 174.7 1051.9 175C1051.95 174.7 1051.99 174.4 1052.03 174.1ZM1051.92 176.1C1051.88 176.44 1051.84 176.79 1051.8 177.13C1051.58 177.19 1051.35 177.24 1051.13 177.3C1050.92 177.29 1050.71 177.28 1050.5 177.28C1050.97 176.89 1051.45 176.49 1051.92 176.1ZM1047.5 177.29C1047.69 177.69 1047.89 178.1 1048.08 178.5C1047.89 178.67 1047.69 178.83 1047.5 179C1047.35 178.83 1047.19 178.67 1047.04 178.5C1047.19 178.1 1047.35 177.69 1047.5 177.29ZM1048.5 184.3C1047.85 183.37 1047.19 182.43 1046.54 181.5C1048.97 181.87 1048.57 181.7 1048.5 184.3ZM1094.92 181.95C1094.58 183.97 1094.24 185.98 1093.89 188C1093.43 187.67 1092.96 187.33 1092.5 187C1092.17 188.29 1091.83 189.58 1091.5 190.87C1089.33 188.17 1090.32 184.7 1089 181.5C1090.97 181.65 1092.95 181.8 1094.92 181.95ZM1088.21 183.13C1088.42 183.44 1088.63 183.74 1088.83 184.05C1088.63 184.05 1088.42 184.05 1088.21 184.05C1088.21 183.74 1088.21 183.44 1088.21 183.13ZM1045.93 184.88C1045.99 185.26 1046.04 185.63 1046.1 186C1046.04 185.63 1045.99 185.26 1045.93 184.88ZM1046.95 188.98C1047.27 189.66 1047.58 190.34 1047.9 191.03C1047.58 190.34 1047.27 189.66 1046.95 188.98ZM1053.96 191.1C1054.33 191.71 1054.7 192.32 1055.07 192.94C1055.39 193.29 1055.7 193.64 1056.02 193.99C1056.35 194.32 1056.68 194.64 1057.02 194.97C1057.37 195.28 1057.73 195.6 1058.09 195.91C1058.72 196.26 1059.36 196.61 1059.99 196.96C1058.61 198.08 1057.23 199.21 1055.85 200.33C1055.57 200.19 1055.28 200.05 1055 199.91C1054.68 199.59 1054.37 199.28 1054.05 198.97C1053.87 198.42 1053.68 197.88 1053.5 197.33C1053.01 197.27 1052.52 197.21 1052.03 197.15C1051.4 196.43 1050.77 195.72 1050.14 195C1050.06 194.69 1049.99 194.38 1049.91 194.07C1049.61 193.69 1049.3 193.31 1048.99 192.94C1049 192.46 1049 191.98 1049 191.5C1050.65 191.37 1052.31 191.24 1053.96 191.1ZM1097.95 191.77C1098.72 192.15 1099.49 192.52 1100.25 192.89C1100.5 193.76 1100.75 194.63 1101 195.5C1100.86 196.36 1100.72 197.22 1100.58 198.09C1099.03 197.06 1097.48 196.04 1095.92 195.01C1096.69 194.17 1097.46 193.34 1098.23 192.5C1098.14 192.26 1098.05 192.02 1097.95 191.77ZM1106.93 195.78C1112.13 196.92 1116.46 198.16 1121 201.14C1121 201.92 1121 202.71 1121 203.5C1119.17 203.67 1117.33 203.83 1115.5 204C1114.41 205.46 1114.55 204.96 1115 206.5C1114.32 206.69 1113.64 206.88 1112.95 207.07C1112.47 206.38 1111.98 205.69 1111.5 205C1110.71 205.05 1109.93 205.11 1109.14 205.16C1108.31 204.16 1107.48 203.16 1106.66 202.16C1107.64 199.64 1108.39 198.8 1106 197.5C1106.31 196.93 1106.62 196.35 1106.93 195.78ZM1074.08 198.92C1074.22 199.42 1074.36 199.91 1074.5 200.4C1074.36 199.91 1074.22 199.42 1074.08 198.92ZM1074.01 201.5C1073.51 202.09 1073 202.68 1072.5 203.26C1071.97 202.68 1071.44 202.09 1070.91 201.5C1071.94 201.5 1072.98 201.5 1074.01 201.5ZM1076 204.02C1075.66 204.12 1075.33 204.22 1074.99 204.32C1074.79 204.04 1074.59 203.77 1074.4 203.5C1074.93 203.67 1075.47 203.85 1076 204.02ZM1128.09 206.72C1137.9 212.12 1147.7 217.52 1157.5 222.92C1158.74 222.05 1159.91 221.04 1161.5 220.95C1165.67 220.72 1176.3 228.02 1180.1 230.41C1183.08 232.29 1187.35 235.95 1190.78 236.72C1193.16 237.25 1194.76 236.09 1197.31 237.19C1206.6 241.19 1215.05 247.09 1224.27 251.28C1228.64 253.25 1233.23 253.98 1237.15 256.96C1238.62 259.09 1240.55 259.64 1243.04 259.91C1252.73 264.93 1262.42 269.95 1272.1 274.97C1273.24 276.31 1274.37 277.66 1275.5 279C1276.34 278.95 1277.18 278.9 1278.02 278.84C1287.11 288.95 1275.07 306.35 1262.5 304.07C1257.55 303.18 1240.56 292.24 1235.49 288.99C1215.93 276.44 1197.05 262.64 1178.32 249.14C1176.66 247.95 1174.81 246.27 1172.83 245.64C1171.42 245.19 1169.98 245.42 1168.54 245.06C1165.97 244.42 1155.71 238.29 1154.47 236.03C1153.41 234.1 1153.7 231.63 1153.42 229.5C1149.28 227.02 1145.13 224.53 1140.99 222.05C1140.49 220.7 1140 219.35 1139.5 218C1139.33 218.5 1139.17 219 1139 219.5C1138.37 219.61 1137.75 219.71 1137.12 219.82C1136.78 219.57 1136.45 219.32 1136.11 219.07C1136.24 218.05 1136.37 217.02 1136.5 216C1135.67 216.6 1134.85 217.2 1134.02 217.8C1130.25 217.22 1126.43 214.82 1123.72 212.1C1122.65 209.87 1122.33 210.52 1119.82 210.5C1119.91 210.74 1120 210.98 1120.08 211.22C1118.39 210.41 1116.69 209.59 1115 208.77C1115.5 208.18 1116 207.59 1116.5 207C1117.5 208.07 1118.5 209.13 1119.5 210.2C1120.5 208.8 1121.5 207.4 1122.5 206C1124.36 206.24 1126.23 206.48 1128.09 206.72ZM501.01 428C500.67 428.17 500.34 428.33 500 428.5C500 431.5 500 434.5 500 437.5C500.36 437.71 500.71 437.91 501.07 438.12C501.04 439.58 501.02 441.04 501 442.5C501.33 442.67 501.66 442.83 501.99 443C502.1 443.37 502.2 443.73 502.3 444.1C502.2 445.57 502.1 447.03 502 448.5C502.37 448.67 502.74 448.83 503.11 449C504.85 458.3 506.59 467.6 508.33 476.9C508.22 478.76 508.11 480.63 508 482.5C508.37 482.66 508.73 482.83 509.1 482.99C509.06 484.83 509.03 486.66 509 488.5C509.36 488.67 509.72 488.83 510.09 489C510.11 489.13 510.13 489.25 510.16 489.38C509.77 489.75 509.39 490.13 509 490.5C509.33 492.17 509.67 493.83 510 495.5C510.33 495.67 510.66 495.83 510.98 496C511.04 496.94 511.1 497.88 511.16 498.82C510.77 499.05 510.39 499.27 510 499.5C510.63 501 511.26 502.5 511.88 504C511.92 505 511.95 506 511.99 507C510.19 509.87 511.47 512.34 511.97 515.53C512.64 519.84 511.82 524.38 511 528.5C511.35 529 511.69 529.5 512.04 530C511.99 531.33 511.93 532.67 511.88 534C511.42 534 510.96 534 510.5 534C510.33 535.17 510.17 536.33 510 537.5C510.43 537.95 510.87 538.41 511.3 538.86C509.8 545.24 508.3 551.62 506.8 558C506.36 558 505.93 558 505.5 558C505.41 559.31 505.33 560.63 505.24 561.94C505.11 562.29 504.99 562.65 504.86 563C502.84 561.21 503.78 560.94 503.78 558.66C503.78 557.96 503.19 557.44 503.22 556.66C503.22 556.58 503.65 555.71 503.59 555.53C503.38 554.89 502.48 554.94 502.22 554.28C501.29 551.92 502.03 548.34 502.5 546C504.2 549.25 507.4 549.87 507.78 545.34C507.93 543.56 506.73 541.03 506 539.5C509.14 536.22 507.38 532.66 508.03 528.53C508.2 527.47 508.94 526.57 508.94 525.5C508.94 524.08 507.93 523.05 508.03 521.53C508.15 519.73 509.21 518.49 508.97 516.53C508.74 514.73 507.79 513.49 508.03 511.53C508.7 506.19 511.36 499.04 504.5 497C504.02 499.52 505.12 501.05 504.97 503.47C504.92 504.3 504.28 504.89 504.22 505.66C503.83 510.27 504.72 515.68 503.97 520.47C503.64 522.57 502.59 524.62 502.19 526.69C501.83 528.55 502.17 530.45 501.81 532.31C501.27 535.14 499.75 537.87 499.19 540.69C498.63 543.45 498.8 545.4 497.5 548C497.67 545.5 497.83 543 498 540.5C495.5 541.99 496.83 542.61 495.7 541.96C495.92 540.97 496.13 539.99 496.35 539C498.2 538.79 497.87 538.62 499 537.5C500.66 533.04 501.24 528.1 501.97 523.47C502.32 521.2 501.68 518.8 502.03 516.53C503.46 507.43 504.28 490.88 502.5 482C501.1 484.81 501.59 485.97 501.15 489C500.43 484.2 500.44 479.33 499.98 474.5C499.13 465.44 497.95 456.41 497.43 447.31C496.98 439.59 495.59 432.13 498.02 424.54C503.31 408.01 524.06 388.13 533.83 372.31C542.05 358.99 548.4 343.93 550.66 328.36C551.94 319.56 551.21 310.92 551.65 302.16C551.77 299.61 551.88 297.05 552 294.5C551.64 294.33 551.28 294.17 550.91 294C549.38 290.43 549.15 286.29 547.88 282.56C543.97 271.11 537.77 258.9 527.37 252.07C509.59 240.39 488.63 249.42 469.5 251.3C447.86 253.44 424.99 246.81 407.78 233.5C414.14 233.48 421.17 237.52 427.66 238.66C441.31 241.07 455.8 241.28 469.48 238.86C485.8 235.96 501.94 229.95 517.28 223.77C528.3 219.34 540.53 214.12 552.5 213.38C555.76 215.44 557.99 219.14 560.32 222.2C566.88 230.79 572.04 240.45 576.07 250.47C594.76 296.96 580.11 344.88 546.82 380.31C539.06 388.57 530.2 395.8 521.4 402.92C515.32 407.84 509.01 412.56 504.65 419.18C502.84 421.94 502.31 425.07 501.01 428ZM1132.71 237C1132.68 236.5 1132.65 236 1132.62 235.5C1131.01 233.51 1130.52 232.12 1130 229.5C1129.64 229.19 1129.29 228.88 1128.93 228.57C1129.79 226.75 1130.64 224.92 1131.5 223.09C1132.95 223.89 1134.4 224.7 1135.85 225.5C1134.8 229.33 1133.75 233.17 1132.71 237ZM1126 235.81C1125.91 236.04 1125.81 236.27 1125.72 236.5C1127.31 237.33 1128.91 238.17 1130.5 239C1131.29 239 1132.07 239 1132.86 239C1132.95 239.15 1133.05 239.31 1133.14 239.46C1131.43 244.47 1129.71 249.49 1128 254.5C1129.35 254.44 1130.7 254.37 1132.06 254.31C1131.49 255.23 1130.92 256.15 1130.36 257.07C1128.49 256.03 1127.18 256.5 1125 256.5C1125.69 255.81 1127.86 254.29 1126.28 253.22C1124.27 251.86 1121.17 252.63 1124 255.5C1121.53 255.5 1119.84 254.86 1117.5 256C1117.01 255.37 1116.53 254.73 1116.04 254.1C1115.64 253.12 1115.25 252.14 1114.85 251.15C1115.4 251.44 1115.95 251.72 1116.5 252C1116.5 251 1116.5 250 1116.5 249C1116 248.91 1115.49 248.82 1114.99 248.74C1115.41 247.82 1115.83 246.91 1116.25 246C1116.67 246.67 1117.08 247.33 1117.5 248C1118.78 245.56 1119.87 244.74 1119.5 242C1118.98 241.9 1118.47 241.81 1117.95 241.71C1118.3 241.11 1118.65 240.5 1119 239.9C1119.5 239.93 1120 239.97 1120.5 240C1121.33 239.5 1122.17 239 1123 238.5C1122.33 238.25 1121.66 238 1120.98 237.75C1122.66 237.1 1124.33 236.45 1126 235.81ZM1127.14 259.69C1127.44 259.96 1127.74 260.23 1128.03 260.5C1127.67 261.33 1127.31 262.17 1126.96 263C1125.35 262.24 1124.13 263.46 1122.5 264C1121.69 268.04 1121.25 270.91 1119 274.5C1123 276.47 1122.61 273.4 1124.28 273.93C1124.28 274.64 1124.29 275.35 1124.29 276.06C1123.86 277.54 1123.43 279.02 1123 280.5C1120.6 280.35 1116.86 283.64 1115 285.5C1115.49 287.79 1117.28 291.22 1120.47 290.59C1120.99 290.49 1121.07 289.67 1121.53 289.41C1122.1 289.08 1122.2 289.94 1122.81 289.25C1123.75 288.2 1124.57 285.28 1125 284C1125.03 286.33 1125.07 288.67 1125.1 291C1124.73 291.17 1124.37 291.33 1124 291.5C1124.11 293.37 1124.22 295.24 1124.34 297.11C1124.23 297.74 1124.12 298.37 1124.02 299C1121.68 301.68 1122.44 304.7 1119 306.5C1120.14 310.15 1116.72 311.88 1116 315.5C1114.43 315.5 1112.57 314.78 1111.03 315.53C1107.25 317.37 1106.32 324.74 1113 323.5C1110.61 329.61 1111.96 326.38 1112.5 331.44C1111.47 332.69 1110.24 332.56 1109.22 333.69C1107.19 335.94 1108.99 339.28 1106.5 342C1106.67 339.83 1106.83 337.67 1107 335.5C1106.05 335.62 1106.66 334.76 1105.69 335.25C1104.63 335.78 1104.97 337.66 1103.97 338.47C1102.41 339.74 1100.6 339.9 1099 341.5C1099.29 345.89 1100.96 346.74 1105.14 347.48C1104.39 349.99 1103.63 352.49 1102.88 355C1102.09 354.33 1101.29 353.67 1100.5 353C1101.02 354.42 1101.54 355.83 1102.06 357.25C1101.96 357.5 1101.86 357.75 1101.77 358C1101.34 358 1100.92 358 1100.5 358C1099.72 359.02 1098.94 360.04 1098.17 361.06C1097.13 361.47 1096.09 361.88 1095.05 362.3C1091.68 362.3 1088.32 362.3 1084.95 362.3C1084.64 362.19 1084.32 362.09 1084 361.99C1082.5 360.32 1081 358.66 1079.5 357C1079.02 357.36 1078.53 357.71 1078.05 358.07C1077.61 357.39 1077.18 356.72 1076.74 356.04C1077.33 355.69 1077.91 355.35 1078.5 355C1080.92 356.03 1081.43 355.44 1083 353.5C1081.98 352.48 1077.1 348.68 1076.52 352.28C1076.43 352.88 1077.25 352.43 1077.3 352.5C1076.76 351.29 1076.21 350.08 1075.67 348.87C1075.78 348.58 1075.88 348.29 1075.98 348C1078.49 347.33 1080.99 346.67 1083.5 346C1083.98 342.08 1081.57 343.44 1081.22 340.34C1080.95 337.95 1081.61 339.36 1080.7 336.5C1084.5 333.65 1086.83 329.1 1086.8 324.14C1087.85 321.76 1088.9 319.38 1089.95 317C1090.3 316.83 1090.65 316.67 1091 316.5C1091.5 314.98 1092 313.45 1092.5 311.93C1092.24 311.95 1091.99 311.98 1091.73 312.01C1091.75 311.17 1091.77 310.34 1091.79 309.5C1093.49 306.58 1095.19 303.66 1096.89 300.74C1097.42 300.16 1097.96 299.58 1098.5 299C1099.67 299.17 1100.83 299.33 1102 299.5C1101.83 298.33 1101.67 297.17 1101.5 296C1100.67 296.17 1099.83 296.33 1099 296.5C1099.23 295.3 1099.45 294.1 1099.68 292.89C1100.84 286.62 1103.73 278.73 1108.02 273.92C1108.52 273.95 1109.01 273.97 1109.5 274C1109.83 272.9 1110.17 271.8 1110.5 270.7C1110.26 270.84 1110.03 270.98 1109.79 271.12C1110.25 270.08 1110.71 269.04 1111.17 268C1112.12 268.17 1113.06 268.33 1114 268.5C1113.64 267.17 1113.27 265.85 1112.91 264.52C1112.98 264.35 1113.05 264.17 1113.12 264C1114.08 264.5 1115.04 265 1116 265.5C1116.36 264.52 1116.91 261.42 1117.7 260.69C1119.18 259.3 1120.68 260.42 1120.5 258C1122.71 258.56 1124.92 259.12 1127.14 259.69ZM1096.92 291.2C1097.3 291.49 1097.67 291.78 1098.05 292.07C1098.03 292.38 1098.02 292.69 1098 293C1097.5 293.67 1097 294.33 1096.5 295C1095.95 294.71 1095.39 294.42 1094.84 294.13C1095.53 293.16 1096.23 292.18 1096.92 291.2ZM1119.5 293C1116.45 296.76 1114.5 299 1115.5 304C1117.97 302.76 1122.55 296.7 1120.78 293.72C1119.78 292.03 1120.87 294.42 1119.5 293ZM553.5 299C553.5 301.33 553.5 303.67 553.5 306C553.5 303.67 553.5 301.33 553.5 299ZM454.05 555.85C451.39 557.17 452.04 558.82 450.29 560.98C448.69 562.96 445.5 564.59 443.5 566.2C441.5 564.63 439.5 563.07 437.5 561.5C438.79 557.86 439.7 556.35 436.5 553.02C433.22 553.56 432.04 555.49 429.25 556.66C427.59 557.36 419.44 557.55 417.26 557.5C417.65 555.19 418.08 553.47 415.5 552.5C420.52 549.71 425.7 550.1 431.5 549.96C431.02 549.28 430.55 548.6 430.07 547.92C432.29 548.45 434.51 548.97 436.73 549.5C435.93 546.67 435.14 543.83 434.34 541C434.56 540.83 434.78 540.67 435 540.5C434.87 537.87 435.08 536.48 432.91 535.03C432.85 532.69 432.76 531.61 431.12 530C425.71 517.27 422.84 503.49 416.34 491.18C412.63 484.15 408.51 477.28 403.03 471.48C399.31 467.52 394.87 464.75 389.92 462.56C352.99 446.17 329.98 484.86 313.61 511.12C308.32 519.59 303.59 528.37 298.42 536.91C296.72 539.71 295.22 544.32 291.45 544.72C285.51 545.34 281.27 539.26 278.59 534.9C271.31 523.08 269.33 508.32 268.54 494.75C265.76 447.44 292.85 390.54 315.5 349.81C316 355.17 312.03 361.42 310.04 366.52C306.45 375.73 303.32 385.36 300.38 394.79C290.35 426.88 281.26 458.54 281.81 492.5C281.99 504.03 283.34 515.28 285.91 526.51C287.12 531.79 287.38 537.28 293.5 538.21C296.82 535.53 297.64 531.49 299.13 527.61C302.27 519.41 305.28 511.17 308.48 502.99C311.35 495.67 314.51 488.44 317.76 481.29C320.34 475.59 322.96 469.9 325.91 464.39C328.23 460.04 330.38 455.61 332.83 451.33C339.84 439.07 347.62 427.22 357.99 417.49C362.8 412.98 368.83 408.28 375.54 407.23C381.36 406.33 386.84 407.88 391.99 410.52C395.86 412.51 399.17 415.21 402.36 418.12C407.65 422.94 411.99 428.62 415.98 434.52C422.65 444.34 427.78 455.57 431.67 466.76C438.94 487.68 442.91 509.8 446.84 531.53C447.98 537.83 449.01 552.1 454.05 555.85ZM53.99 398C54.33 401.17 54.66 404.33 55 407.5C54.5 408.67 54 409.83 53.5 411C53.22 410.31 52.94 409.61 52.66 408.92C52.75 408.28 52.85 407.64 52.94 407C53.3 406.83 53.65 406.67 54 406.5C53.89 404.29 53.77 402.09 53.66 399.88C53.77 399.26 53.88 398.63 53.99 398ZM52.06 419C52.28 419.99 52.14 421.41 52.43 422.47C52.76 423.65 53.68 424.32 53.97 425.53C55.18 430.54 54 439.13 54 444.5C53.36 445 52.72 445.5 52.08 446C52 443 51.92 440 51.84 437C52.23 436.83 52.61 436.67 53 436.5C53 434.5 53 432.5 53 430.5C52.56 430.04 52.12 429.57 51.67 429.11C51.8 425.74 51.93 422.37 52.06 419ZM52.94 457C52.85 456.37 52.75 455.74 52.66 455.11C52.94 454.07 53.22 453.04 53.5 452C53.48 453.5 53.46 455 53.44 456.5C53.27 456.67 53.11 456.83 52.94 457ZM606 487.93C605.67 488.45 605.33 488.98 605 489.5C606.17 490 607.33 490.5 608.5 491C609.01 490.6 609.53 490.19 610.04 489.79C610.4 490.48 610.75 491.16 611.11 491.84C610.89 495.56 611.18 498.99 609.93 502.5C610.26 503 610.59 503.51 610.92 504.01C610.75 509.01 607.86 513.62 605.51 518.01C601.45 525.61 597.7 533.81 593 541C591.9 541.5 590.81 542 589.71 542.5C589.89 543.36 590.08 544.21 590.26 545.07C585.03 552.1 576.8 557.96 570.04 563.52C556.07 575.02 541.72 586 525.32 593.78C520.29 596.17 514.91 599.54 509.5 600.64C507.87 595.09 513.54 587.38 515.52 582.04C521.36 566.33 526.02 549.72 533.01 534.5C535.36 529.38 539.36 519.29 546.48 519.97C554.11 520.7 551.33 533.05 550.14 537.55C548.25 544.66 546.74 552.54 543.71 559.24C539.66 568.22 533.29 576.18 528.11 584.5C535.17 584.21 544.39 568.23 549.04 562.94C549.86 563.73 550.68 564.51 551.5 565.3C553.68 561.37 555.87 557.43 558.05 553.5C557.33 553.16 556.6 552.83 555.88 552.49C557.92 547.83 561.24 543.72 563.75 539.26C571.07 526.24 578.43 512.98 587.61 501.15C592.11 495.34 598.09 487.89 606 487.93ZM607 491.6C602.57 490 604.43 488.67 601.5 491.6C603.33 491.6 605.17 491.6 607 491.6ZM500.11 519C499.82 521.38 499.53 523.77 499.24 526.15C499.53 523.77 499.82 521.38 500.11 519ZM600.49 590.17C600.06 586.21 602.38 585.89 604.47 582.97C606.1 580.68 606.1 578.03 607.22 575.72C607.69 574.74 608.84 574.96 608.78 573.66C608.75 573.02 607.32 571.14 607 570.5C609.71 568.72 609.63 566.25 611 563.5C610.8 563.31 610.98 562.53 610.5 562.44C610.09 562.36 609.62 564.32 609.19 563.25C608.78 562.24 609.86 561.3 609.59 560.53C609.38 559.9 608.45 559.89 608.03 559.47C606.01 557.4 606.64 557.62 604 558.5C604 557.17 604 555.83 604 554.5C602.17 552.97 600.33 551.44 598.5 549.91C598.17 551.61 597.83 553.3 597.5 555C592.51 553.44 591.5 559.33 589.5 562C587.15 561.32 588.2 562.51 586.28 563.7C585.83 563.98 585.17 563.5 584.69 563.71C583.21 564.36 582.2 566.67 581.5 568C580.27 568 579.05 567.99 577.82 567.99C581.53 563.35 586.79 559.74 591.08 555.58C601.36 545.6 611.95 535.57 623.35 526.9C628.24 523.17 637.3 515.59 643.15 521.35C648.71 526.83 644.87 537.6 642.11 543.55C636.83 554.92 626.12 564.15 617.34 572.83C611.66 578.46 606.65 585.12 600.49 590.17ZM380.09 539C374.71 538.95 369.34 538.9 363.96 538.86C368.05 537.6 376.33 537.28 380.09 539ZM380.09 539C387.63 538.09 404.73 540.29 412 542.97C413.15 544.15 414.3 545.32 415.45 546.5C413.38 547.89 412.1 550.33 410.05 551.55C408.97 552.2 406.42 552 405.62 552.88C404.74 553.84 405.46 555.37 405.26 555.5C399.09 552.99 396.98 556.43 396.5 562.5C395.21 562.16 394.35 563.81 393.56 563.58C393.2 563.48 391.8 560.92 391.5 560.5C389.83 561.17 388.17 561.83 386.5 562.5C385.5 561.79 384.5 561.09 383.5 560.38C381.83 561.42 380.17 562.46 378.5 563.5C373.17 562.5 367.83 561.5 362.5 560.5C360.16 562.04 359.25 562.07 356.5 561.5C355.65 565.32 355.24 565.76 351.62 567C350.51 567.38 349.8 568.05 348.53 567.97C347.4 567.9 346.76 567.06 345.64 567.08C343.8 567.1 341.44 568.57 339.53 568.66C337.49 568.75 334.98 567.87 332.81 568.34C329.05 569.15 326.02 571.55 322.5 569.5C318.92 571.49 316.61 573.15 312.5 571.81C313.81 568.75 314.53 568.19 317.5 566.5C314.58 564.49 315.22 563.81 311.5 564.12C309.54 565.98 310.62 566.32 310.5 569.5C307.07 570.9 305.86 569.34 302.5 569.07C300.81 569.52 299.95 570.51 299.3 570.69C299.09 570.75 293.29 570.62 292.5 570.63C290.83 569.11 286.5 566.79 285.69 565.96C285.34 565.6 285.62 564.92 285.35 564.5C287.88 563.24 290.71 561.49 293.59 561.22C294.84 561.11 296.07 561.43 297.3 561.16C301.73 560.15 305.47 556.02 309.8 554.47C314.88 552.66 319.8 550.22 324.88 548.48C328.88 547.11 333.35 546.92 337.48 546.01C341.72 545.09 345.83 543.49 350.09 542.55C356.55 541.13 363.92 540.91 370.53 540.36C373.9 540.07 377.31 540.9 380.09 539ZM595.12 595.94C594.07 597.01 593.03 598.07 591.98 599.13C591.66 598.59 591.33 598.04 591 597.5C591.83 596.67 592.67 595.83 593.5 595C594.04 595.31 594.58 595.63 595.12 595.94ZM123.84 622.55C124.39 622.36 124.95 622.18 125.5 622C126.33 622.83 127.17 623.67 128 624.5C127.69 625.04 127.37 625.57 127.06 626.11C125.99 624.92 124.91 623.74 123.84 622.55ZM339 721.02C337.33 720.98 335.67 720.94 334 720.9C335.67 720.94 337.33 720.98 339 721.02ZM360 720.91C358.33 720.94 356.67 720.98 355 721.01C356.67 720.98 358.33 720.94 360 720.91Z" fill="#f36e06" fill-rule="evenodd" stroke="#f36e06" stroke-width="0.25" stroke-linejoin="round"/>
<path d="M1061.07 164.1C1061.77 164.17 1062.47 164.23 1063.17 164.3C1063.48 164.24 1063.8 164.17 1064.12 164.11C1064.74 164.09 1065.37 164.07 1066 164.06C1069.03 164.29 1072.06 164.52 1075.1 164.75C1080.17 165.93 1083.98 169.36 1086.49 173.86C1088.22 177.07 1088.48 179.51 1088.21 183.13C1088.21 183.44 1088.21 183.74 1088.21 184.05C1080.19 205.75 1052.13 200.15 1051.8 177.13C1051.84 176.79 1051.88 176.44 1051.92 176.1C1051.92 175.73 1051.91 175.37 1051.9 175C1051.95 174.7 1051.99 174.4 1052.03 174.1C1054.69 171.03 1057.34 167.97 1060 164.9C1060.36 164.63 1060.71 164.37 1061.07 164.1ZM1134.18 247.22C1133.82 248.46 1133.46 249.7 1133.09 250.94C1132.56 251.01 1132.03 251.08 1131.5 251.14C1132.17 249.3 1132.83 247.46 1133.5 245.62C1133.73 246.15 1133.96 246.69 1134.18 247.22ZM1005.8 589.5C1005.38 592.2 1004.81 593.19 1002.5 594.72C998.44 594.18 995.61 590.89 991.46 590.12C980.54 588.1 969.84 596.22 969.68 607.5C969.52 617.85 979.09 626.77 989.5 625.35C994.42 624.68 997.73 620.66 1002.5 620.29C1004.76 621.79 1005.37 622.88 1005.93 625.5C1003.44 631.15 996.29 633.47 990.55 634.32C975.06 636.63 961.57 623.79 961.11 608.5C960.65 593.38 973.42 580.39 988.5 580.86C994.61 581.04 1002.95 583.7 1005.8 589.5ZM1206.72 589.5C1206.16 592.46 1205.23 593.56 1202.5 594.84C1198.64 593.6 1195.66 590.69 1191.5 590.05C1180.26 588.32 1170.32 597.04 1170.71 608.5C1171.07 619.3 1180.93 627.04 1191.5 625.18C1195.67 624.44 1198.54 621.2 1202.5 620.22C1205.18 621.4 1206.06 622.64 1206.62 625.5C1204.31 631.22 1197.12 633.35 1191.51 634.19C1175.9 636.53 1162.34 624 1162.02 608.5C1161.7 593.12 1174.89 579.56 1190.5 580.83C1196.23 581.3 1204.2 583.95 1206.72 589.5ZM808 590.89C807.83 590.6 807.67 590.3 807.5 590C806.17 590 804.83 590 803.5 590C803.33 590.28 803.17 590.56 803 590.83C802.17 590.32 801.33 589.81 800.5 589.29C800.04 587.08 799.42 584.78 801.8 583.32C804.2 581.85 807.83 582.4 810.5 582.41C816.99 582.44 833.53 580.62 838.12 584.5C838.03 586.17 837.93 587.83 837.83 589.5C833.95 592.25 828.25 590.98 823.67 591.5C821.94 600.6 823.27 613.92 823.28 623.5C823.28 629.51 824.58 635.22 816.5 633.54C813.87 630.34 814.91 625.45 814.9 621.5C814.86 611.57 815.51 601.38 814.67 591.5C812.45 591.3 810.22 591.1 808 590.89ZM1029.16 625.5C1035.14 626.24 1047.24 623.91 1051.69 627.5C1051.99 629.44 1052.78 631.85 1050.89 633.36C1048.99 634.88 1045.76 634.33 1043.5 634.35C1036.64 634.41 1027.99 635.75 1021.5 633.46C1019.08 629.63 1019.91 624.94 1019.89 620.5C1019.86 612.5 1019.91 604.5 1019.88 596.5C1019.87 592.11 1019.19 587.39 1021.34 583.5C1028.88 580.32 1028.6 587.12 1028.59 592.5C1028.57 601.25 1026.99 617.67 1029.16 625.5ZM646.29 633.5C644.27 629.97 644.94 625.56 644.95 621.5C644.97 613.17 644.98 604.83 644.94 596.5C644.92 592.18 644.06 587.37 646.5 583.7C650.34 582.04 655.31 582.39 659.5 582.57C663.73 582.76 667.87 583.86 671.57 585.94C684.91 593.42 688.94 611.78 679.48 623.96C673.73 631.37 665.71 634.58 656.5 634.64C652.95 634.66 649.5 635.13 646.29 633.5ZM730.5 583.83C731.66 586.41 731.67 587.41 730.5 589.99C724.89 592.77 713.99 590.84 707.37 591.5C707.37 595.52 707.37 599.55 707.37 603.57C711.87 604.7 724.2 602.94 727.07 605.41C728.4 606.57 728.38 607.91 728.55 609.5C725.45 615.38 713.46 612.68 707.39 613.5C707.39 617.57 707.39 621.64 707.39 625.7C714.07 626.68 725.14 624.24 730.73 627.5C731.76 629.98 731.75 631.02 730.73 633.5C727.75 635.03 724.8 634.67 721.5 634.68C715.23 634.69 703.73 636.6 698.94 632.5C697.16 624.14 698.37 607.28 698.5 598.11C698.57 593.59 697.57 588.21 699.5 584.1C702.38 582.35 705.13 582.59 708.5 582.57C715.06 582.54 724.66 580.77 730.5 583.83ZM749.5 583.4C756.14 582.18 756.93 586.5 760.35 591.18C766.31 599.33 772.13 607.58 778.5 615.41C780.06 608.45 779.08 600.67 779.16 593.5C779.21 588.93 778.28 585.32 782.5 582.75C789.11 583.72 787.79 587.93 787.83 593.5C787.89 603.5 787.67 613.5 787.81 623.5C787.89 628.61 788.73 633.88 782.5 634.6C778.76 632.75 776.83 628.43 774.42 625.1C768.74 617.27 763.58 607.96 756.5 601.34C755.79 610.2 758.41 626.75 754.61 634C752.91 634 751.2 634 749.5 634C746.86 630.68 747.71 626.58 747.69 622.5C747.67 613.5 747.78 604.5 747.69 595.5C747.65 591.37 746.73 586.75 749.5 583.4ZM861.5 582.53C866.34 584 867.07 588.28 868.66 592.76C871.86 601.77 875.17 610.83 878.79 619.67C880.46 623.76 883.29 628.08 882.06 632.5C880.54 633.17 879.02 633.85 877.5 634.52C873.16 632.59 872.47 626.4 870.57 622.33C864.55 622.33 858.52 622.33 852.5 622.33C849.99 627.4 848.98 636.74 841.5 633.24C839.2 629.16 841.98 625.13 843.51 621.04C846.94 611.87 850.76 602.86 854.27 593.71C856.02 589.14 856.66 584.45 861.5 582.53ZM919 626.09C919.17 626.39 919.33 626.7 919.5 627C921.5 627 923.5 627 925.5 627C925.67 626.71 925.83 626.41 926 626.12C927.04 626.58 928.07 627.04 929.11 627.5C929.16 629.17 929.21 630.83 929.27 632.5C926.51 634.63 923.95 634.39 920.5 634.41C913.7 634.44 904.85 635.92 898.5 633.37C896.16 629.81 896.59 625.16 897.04 621C897.36 620.83 897.68 620.67 898 620.5C898 617.83 898 615.17 898 612.5C897.7 612.33 897.41 612.17 897.11 612C897.11 607.67 897.11 603.33 897.1 599C897.4 598.83 897.7 598.67 898 598.5C898 594.5 898 590.5 898 586.5C897.7 586.33 897.41 586.17 897.11 586C898.29 582.65 900.17 582.66 903.5 583.01C906.72 586.67 905.62 591.85 905.62 596.5C905.62 606.03 904.73 616.08 905.97 625.5C910.31 625.7 914.66 625.89 919 626.09ZM1070.5 583.15C1073.11 586.54 1072.32 591.36 1072.29 595.5C1072.23 603.5 1072.22 611.5 1072.23 619.5C1072.23 623.16 1073.06 627.93 1072 631.45C1071.03 634.65 1068.02 634.11 1065.5 633.67C1062.8 630.43 1063.69 625.53 1063.65 621.5C1063.57 613.5 1063.66 605.5 1063.68 597.5C1063.69 593.78 1062.93 589.14 1064.01 585.56C1065 582.27 1067.83 582.69 1070.5 583.15ZM1091.5 582.66C1096.35 583.44 1097.74 587.28 1100.47 591.04C1105.89 598.51 1111.65 609.17 1118.5 615.09C1119.11 608.3 1118.8 601.33 1118.78 594.5C1118.77 591.57 1118.15 587.58 1119.41 584.86C1120.64 582.2 1123.26 582.93 1125.5 583.31C1128.12 586.73 1127.2 591.37 1127.2 595.5C1127.19 603.83 1127.2 612.17 1127.19 620.5C1127.19 623.87 1128 628.17 1126.91 631.41C1125.89 634.44 1123.03 634.12 1120.5 633.86C1112.83 623.08 1105.17 612.3 1097.5 601.52C1095.48 608.31 1096.66 616.25 1096.52 623.38C1096.45 627.14 1097.09 630.73 1094.5 633.71C1092.33 633.99 1089.67 634.61 1088.55 632C1087.22 628.91 1088.17 623.82 1088.17 620.5C1088.14 611.83 1088.19 603.17 1088.18 594.5C1088.17 589.73 1087.07 585.38 1091.5 582.66ZM1143.5 583.13C1146.08 582.76 1149.01 582.33 1149.94 585.56C1150.88 588.86 1150.13 593.1 1150.13 596.5C1150.12 603.83 1150.17 611.17 1150.14 618.5C1150.12 622.4 1151.1 627.66 1149.88 631.38C1148.89 634.41 1145.99 634.06 1143.5 633.81C1140.72 630.54 1141.56 625.62 1141.53 621.5C1141.47 612.83 1141.6 604.17 1141.57 595.5C1141.55 591.28 1140.87 586.62 1143.5 583.13ZM653.57 625.5C658.76 626.32 663.87 625.96 668.23 622.7C678.85 614.76 677.94 597.75 665.23 592.33C661.46 590.72 657.52 590.95 653.57 591.5C653.57 602.83 653.57 614.17 653.57 625.5ZM861.5 599.32C859.82 604.08 858.14 608.84 856.47 613.61C859.9 613.61 863.33 613.61 866.76 613.61C866.38 609.4 864.47 602.26 861.5 599.32Z" fill="#66320f" fill-rule="evenodd" stroke="#66320f" stroke-width="0.25" stroke-linejoin="round"/>
</svg>